blackcompressed.ufo
<glyph name="dollar" format="1">
  <advance width="484"/>
  <unicode hex="0024"/>
  <outline>
    <contour>
      <point x="152" y="91"/>
      <point x="40" y="91"/>
      <point x="152" y="91" type="curve"/>
      <point x="152" y="91"/>
      <point x="152" y="91"/>
      <point x="152" y="91" type="curve"/>
      <point x="40" y="91"/>
      <point x="152" y="91"/>
      <point x="40" y="91" type="curve"/>
      <point x="40" y="91"/>
      <point x="40" y="91"/>
      <point x="40" y="91" type="curve"/>
    </contour>
    <contour>
      <point x="298" y="636"/>
      <point x="410" y="636"/>
      <point x="298" y="636" type="curve"/>
      <point x="298" y="636"/>
      <point x="298" y="636"/>
      <point x="298" y="636" type="curve"/>
      <point x="410" y="636"/>
      <point x="298" y="636"/>
      <point x="410" y="636" type="curve"/>
      <point x="410" y="636"/>
      <point x="410" y="636"/>
      <point x="410" y="636" type="curve"/>
    </contour>
    <contour>
      <point x="292" y="8"/>
      <point x="149" y="8"/>
      <point x="292" y="8" type="curve"/>
      <point x="292" y="38"/>
      <point x="292" y="67"/>
      <point x="292" y="97" type="curve"/>
      <point x="149" y="97"/>
      <point x="292" y="97"/>
      <point x="149" y="97" type="curve"/>
      <point x="149" y="67"/>
      <point x="149" y="38"/>
      <point x="149" y="8" type="curve"/>
    </contour>
    <contour>
      <point x="301" y="632"/>
      <point x="158" y="632"/>
      <point x="301" y="632" type="curve"/>
      <point x="301" y="662"/>
      <point x="301" y="691"/>
      <point x="301" y="721" type="curve"/>
      <point x="158" y="721"/>
      <point x="301" y="721"/>
      <point x="158" y="721" type="curve"/>
      <point x="158" y="691"/>
      <point x="158" y="662"/>
      <point x="158" y="632" type="curve"/>
    </contour>
    <contour>
      <point x="40" y="91"/>
      <point x="118" y="190"/>
      <point x="40" y="91" type="curve"/>
      <point x="87" y="63"/>
      <point x="146" y="42"/>
      <point x="214" y="42" type="curve"/>
      <point x="350" y="42"/>
      <point x="454" y="109"/>
      <point x="454" y="221" type="curve"/>
      <point x="454" y="317"/>
      <point x="372" y="374"/>
      <point x="274" y="423" type="curve"/>
      <point x="220" y="450"/>
      <point x="173" y="489"/>
      <point x="173" y="520" type="curve"/>
      <point x="173" y="541"/>
      <point x="195" y="578"/>
      <point x="231" y="578" type="curve"/>
      <point x="274" y="578"/>
      <point x="303" y="564"/>
      <point x="338" y="542" type="curve"/>
      <point x="410" y="636"/>
      <point x="338" y="542"/>
      <point x="410" y="636" type="curve"/>
      <point x="354" y="670"/>
      <point x="306" y="688"/>
      <point x="237" y="688" type="curve"/>
      <point x="116" y="688"/>
      <point x="30" y="623"/>
      <point x="30" y="520" type="curve"/>
      <point x="30" y="425"/>
      <point x="94" y="370"/>
      <point x="189" y="323" type="curve"/>
      <point x="249" y="295"/>
      <point x="311" y="250"/>
      <point x="311" y="216" type="curve"/>
      <point x="311" y="189"/>
      <point x="275" y="152"/>
      <point x="227" y="152" type="curve"/>
      <point x="184" y="152"/>
      <point x="148" y="173"/>
      <point x="118" y="190" type="curve"/>
    </contour>
  </outline>
</glyph>
<glyph name="plus" format="1">
  <advance width="491"/>
  <unicode hex="002B"/>
  <outline>
    <contour>
      <point x="30" y="248"/>
      <point x="30" y="370"/>
      <point x="30" y="248" type="curve"/>
      <point x="30" y="248"/>
      <point x="461" y="248"/>
      <point x="461" y="248" type="curve"/>
      <point x="461" y="370"/>
      <point x="461" y="248"/>
      <point x="461" y="370" type="curve"/>
      <point x="461" y="370"/>
      <point x="30" y="370"/>
      <point x="30" y="370" type="curve"/>
    </contour>
    <contour>
      <point x="317" y="18"/>
      <point x="174" y="18"/>
      <point x="317" y="18" type="curve"/>
      <point x="317" y="18"/>
      <point x="317" y="588"/>
      <point x="317" y="588" type="curve"/>
      <point x="174" y="588"/>
      <point x="317" y="588"/>
      <point x="174" y="588" type="curve"/>
      <point x="174" y="588"/>
      <point x="174" y="18"/>
      <point x="174" y="18" type="curve"/>
    </contour>
  </outline>
</glyph>
<glyph name="comma" format="1">
  <advance width="321"/>
  <unicode hex="002C"/>
  <outline>
    <contour>
      <point x="199" y="-99"/>
      <point x="30" y="-99"/>
      <point x="199" y="-99" type="curve"/>
      <point x="227" y="-37"/>
      <point x="264" y="20"/>
      <point x="291" y="82" type="curve"/>
      <point x="96" y="82"/>
      <point x="291" y="82"/>
      <point x="96" y="82" type="curve"/>
      <point x="71" y="23"/>
      <point x="55" y="-40"/>
      <point x="30" y="-99" type="curve"/>
    </contour>
  </outline>
</glyph>
<glyph name="slash" format="1">
  <advance width="522"/>
  <unicode hex="002F"/>
  <outline>
    <contour>
      <point x="173" y="-68"/>
      <point x="30" y="-68"/>
      <point x="173" y="-68" type="curve"/>
      <point x="280" y="236"/>
      <point x="386" y="540"/>
      <point x="493" y="844" type="curve"/>
      <point x="350" y="844"/>
      <point x="493" y="844"/>
      <point x="350" y="844" type="curve"/>
      <point x="243" y="540"/>
      <point x="137" y="236"/>
      <point x="30" y="-68" type="curve"/>
    </contour>
  </outline>
</glyph>
<glyph name="equal" format="1">
  <advance width="532"/>
  <unicode hex="003D"/>
  <outline>
    <contour>
      <point x="30" y="159"/>
      <point x="30" y="276"/>
      <point x="30" y="159" type="curve"/>
      <point x="187" y="159"/>
      <point x="345" y="159"/>
      <point x="502" y="159" type="curve"/>
      <point x="502" y="276"/>
      <point x="502" y="159"/>
      <point x="502" y="276" type="curve"/>
      <point x="345" y="276"/>
      <point x="187" y="276"/>
      <point x="30" y="276" type="curve"/>
    </contour>
    <contour>
      <point x="30" y="381"/>
      <point x="30" y="498"/>
      <point x="30" y="381" type="curve"/>
      <point x="187" y="381"/>
      <point x="345" y="381"/>
      <point x="502" y="381" type="curve"/>
      <point x="502" y="498"/>
      <point x="502" y="381"/>
      <point x="502" y="498" type="curve"/>
      <point x="345" y="498"/>
      <point x="187" y="498"/>
      <point x="30" y="498" type="curve"/>
    </contour>
  </outline>
</glyph>
<glyph name="A" format="1">
  <advance width="641"/>
  <unicode hex="0041"/>
  <outline>
    <contour>
      <point x="117" y="110"/>
      <point x="117" y="0"/>
      <point x="117" y="110" type="curve"/>
      <point x="117" y="110"/>
      <point x="117" y="110"/>
      <point x="117" y="110" type="curve"/>
      <point x="117" y="0"/>
      <point x="117" y="110"/>
      <point x="117" y="0" type="curve"/>
      <point x="117" y="0"/>
      <point x="117" y="0"/>
      <point x="117" y="0" type="curve"/>
    </contour>
    <contour>
      <point x="117" y="0"/>
      <point x="117" y="110"/>
      <point x="117" y="0" type="curve"/>
      <point x="174" y="0"/>
      <point x="-45" y="0"/>
      <point x="125" y="0" type="curve"/>
      <point x="125" y="110"/>
      <point x="125" y="0"/>
      <point x="125" y="110" type="curve"/>
      <point x="-45" y="110"/>
      <point x="287" y="110"/>
      <point x="117" y="110" type="curve"/>
    </contour>
    <contour>
      <point x="527" y="0"/>
      <point x="527" y="110"/>
      <point x="527" y="0" type="curve"/>
      <point x="527" y="0"/>
      <point x="527" y="0"/>
      <point x="527" y="0" type="curve"/>
      <point x="527" y="110"/>
      <point x="527" y="0"/>
      <point x="527" y="110" type="curve"/>
      <point x="527" y="110"/>
      <point x="527" y="110"/>
      <point x="527" y="110" type="curve"/>
    </contour>
    <contour>
      <point x="527" y="110"/>
      <point x="527" y="0"/>
      <point x="527" y="110" type="curve"/>
      <point x="358" y="110"/>
      <point x="687" y="110"/>
      <point x="518" y="110" type="curve"/>
      <point x="518" y="0"/>
      <point x="518" y="110"/>
      <point x="518" y="0" type="curve"/>
      <point x="574" y="0"/>
      <point x="471" y="0"/>
      <point x="527" y="0" type="curve"/>
    </contour>
    <contour>
      <point x="440" y="324"/>
      <point x="485" y="207"/>
      <point x="440" y="324" type="curve"/>
      <point x="367" y="324"/>
      <point x="295" y="324"/>
      <point x="222" y="324" type="curve"/>
      <point x="164" y="207"/>
      <point x="222" y="324"/>
      <point x="164" y="207" type="curve"/>
      <point x="271" y="207"/>
      <point x="378" y="207"/>
      <point x="485" y="207" type="curve"/>
    </contour>
    <contour>
      <point x="611" y="0"/>
      <point x="461" y="0"/>
      <point x="611" y="0" type="curve"/>
      <point x="543" y="241"/>
      <point x="467" y="481"/>
      <point x="400" y="722" type="curve"/>
      <point x="270" y="722"/>
      <point x="400" y="722"/>
      <point x="270" y="722" type="curve"/>
      <point x="336" y="482"/>
      <point x="395" y="240"/>
      <point x="461" y="0" type="curve"/>
    </contour>
    <contour>
      <point x="186" y="0"/>
      <point x="30" y="0"/>
      <point x="186" y="0" type="curve"/>
      <point x="260" y="240"/>
      <point x="324" y="482"/>
      <point x="398" y="722" type="curve"/>
      <point x="268" y="722"/>
      <point x="398" y="722"/>
      <point x="268" y="722" type="curve"/>
      <point x="192" y="480"/>
      <point x="106" y="242"/>
      <point x="30" y="0" type="curve"/>
    </contour>
  </outline>
</glyph>
<glyph name="E" format="1">
  <advance width="453"/>
  <unicode hex="0045"/>
  <outline>
    <contour>
      <point x="239" y="372"/>
      <point x="351" y="372"/>
      <point x="239" y="372" type="curve"/>
      <point x="239" y="372"/>
      <point x="239" y="372"/>
      <point x="239" y="372" type="curve"/>
      <point x="351" y="372"/>
      <point x="239" y="372"/>
      <point x="351" y="372" type="curve"/>
      <point x="351" y="372"/>
      <point x="351" y="372"/>
      <point x="351" y="372" type="curve"/>
    </contour>
    <contour>
      <point x="351" y="372"/>
      <point x="239" y="372"/>
      <point x="351" y="372" type="curve"/>
      <point x="351" y="372"/>
      <point x="351" y="372"/>
      <point x="351" y="372" type="curve"/>
      <point x="239" y="372"/>
      <point x="351" y="372"/>
      <point x="239" y="372" type="curve"/>
      <point x="239" y="372"/>
      <point x="239" y="372"/>
      <point x="239" y="372" type="curve"/>
    </contour>
    <contour>
      <point x="423" y="55"/>
      <point x="311" y="55"/>
      <point x="423" y="55" type="curve"/>
      <point x="423" y="55"/>
      <point x="423" y="55"/>
      <point x="423" y="55" type="curve"/>
      <point x="311" y="55"/>
      <point x="423" y="55"/>
      <point x="311" y="55" type="curve"/>
      <point x="311" y="55"/>
      <point x="311" y="55"/>
      <point x="311" y="55" type="curve"/>
    </contour>
    <contour>
      <point x="286" y="667"/>
      <point x="398" y="667"/>
      <point x="286" y="667" type="curve"/>
      <point x="286" y="667"/>
      <point x="286" y="667"/>
      <point x="286" y="667" type="curve"/>
      <point x="398" y="667"/>
      <point x="286" y="667"/>
      <point x="398" y="667" type="curve"/>
      <point x="398" y="667"/>
      <point x="398" y="667"/>
      <point x="398" y="667" type="curve"/>
    </contour>
    <contour>
      <point x="102" y="110"/>
      <point x="102" y="0"/>
      <point x="102" y="110" type="curve"/>
      <point x="102" y="110"/>
      <point x="102" y="110"/>
      <point x="102" y="110" type="curve"/>
      <point x="102" y="0"/>
      <point x="102" y="110"/>
      <point x="102" y="0" type="curve"/>
      <point x="102" y="0"/>
      <point x="102" y="0"/>
      <point x="102" y="0" type="curve"/>
    </contour>
    <contour>
      <point x="102" y="722"/>
      <point x="102" y="612"/>
      <point x="102" y="722" type="curve"/>
      <point x="102" y="722"/>
      <point x="102" y="722"/>
      <point x="102" y="722" type="curve"/>
      <point x="102" y="612"/>
      <point x="102" y="722"/>
      <point x="102" y="612" type="curve"/>
      <point x="102" y="612"/>
      <point x="102" y="612"/>
      <point x="102" y="612" type="curve"/>
    </contour>
    <contour>
      <point x="105" y="317"/>
      <point x="105" y="428"/>
      <point x="105" y="317" type="curve"/>
      <point x="186" y="317"/>
      <point x="269" y="317"/>
      <point x="351" y="317" type="curve"/>
      <point x="351" y="428"/>
      <point x="351" y="317"/>
      <point x="351" y="428" type="curve"/>
      <point x="269" y="428"/>
      <point x="186" y="428"/>
      <point x="105" y="428" type="curve"/>
    </contour>
    <contour>
      <point x="93" y="612"/>
      <point x="93" y="722"/>
      <point x="93" y="612" type="curve"/>
      <point x="195" y="612"/>
      <point x="296" y="612"/>
      <point x="398" y="612" type="curve"/>
      <point x="398" y="722"/>
      <point x="398" y="612"/>
      <point x="398" y="722" type="curve"/>
      <point x="296" y="722"/>
      <point x="195" y="722"/>
      <point x="93" y="722" type="curve"/>
    </contour>
    <contour>
      <point x="173" y="0"/>
      <point x="30" y="0"/>
      <point x="173" y="0" type="curve"/>
      <point x="173" y="0"/>
      <point x="173" y="722"/>
      <point x="173" y="722" type="curve"/>
      <point x="30" y="722"/>
      <point x="173" y="722"/>
      <point x="30" y="722" type="curve"/>
      <point x="30" y="481"/>
      <point x="30" y="241"/>
      <point x="30" y="0" type="curve"/>
    </contour>
    <contour>
      <point x="93" y="0"/>
      <point x="93" y="110"/>
      <point x="93" y="0" type="curve"/>
      <point x="203" y="0"/>
      <point x="313" y="0"/>
      <point x="423" y="0" type="curve"/>
      <point x="423" y="110"/>
      <point x="423" y="0"/>
      <point x="423" y="110" type="curve"/>
      <point x="313" y="110"/>
      <point x="203" y="110"/>
      <point x="93" y="110" type="curve"/>
    </contour>
  </outline>
</glyph>
<glyph name="H" format="1">
  <advance width="582"/>
  <unicode hex="0048"/>
  <outline>
    <contour>
      <point x="481" y="612"/>
      <point x="481" y="722"/>
      <point x="481" y="612" type="curve"/>
      <point x="481" y="612"/>
      <point x="481" y="612"/>
      <point x="481" y="612" type="curve"/>
      <point x="481" y="722"/>
      <point x="481" y="612"/>
      <point x="481" y="722" type="curve"/>
      <point x="481" y="722"/>
      <point x="481" y="722"/>
      <point x="481" y="722" type="curve"/>
    </contour>
    <contour>
      <point x="481" y="0"/>
      <point x="481" y="110"/>
      <point x="481" y="0" type="curve"/>
      <point x="481" y="0"/>
      <point x="481" y="0"/>
      <point x="481" y="0" type="curve"/>
      <point x="481" y="110"/>
      <point x="481" y="0"/>
      <point x="481" y="110" type="curve"/>
      <point x="481" y="110"/>
      <point x="481" y="110"/>
      <point x="481" y="110" type="curve"/>
    </contour>
    <contour>
      <point x="481" y="110"/>
      <point x="481" y="0"/>
      <point x="481" y="110" type="curve"/>
      <point x="481" y="110"/>
      <point x="481" y="110"/>
      <point x="481" y="110" type="curve"/>
      <point x="481" y="0"/>
      <point x="481" y="110"/>
      <point x="481" y="0" type="curve"/>
      <point x="481" y="0"/>
      <point x="481" y="0"/>
      <point x="481" y="0" type="curve"/>
    </contour>
    <contour>
      <point x="481" y="722"/>
      <point x="481" y="612"/>
      <point x="481" y="722" type="curve"/>
      <point x="481" y="722"/>
      <point x="481" y="722"/>
      <point x="481" y="722" type="curve"/>
      <point x="481" y="612"/>
      <point x="481" y="722"/>
      <point x="481" y="612" type="curve"/>
      <point x="481" y="612"/>
      <point x="481" y="612"/>
      <point x="481" y="612" type="curve"/>
    </contour>
    <contour>
      <point x="101" y="612"/>
      <point x="101" y="722"/>
      <point x="101" y="612" type="curve"/>
      <point x="101" y="612"/>
      <point x="101" y="612"/>
      <point x="101" y="612" type="curve"/>
      <point x="101" y="722"/>
      <point x="101" y="612"/>
      <point x="101" y="722" type="curve"/>
      <point x="101" y="722"/>
      <point x="101" y="722"/>
      <point x="101" y="722" type="curve"/>
    </contour>
    <contour>
      <point x="101" y="722"/>
      <point x="101" y="612"/>
      <point x="101" y="722" type="curve"/>
      <point x="101" y="722"/>
      <point x="101" y="722"/>
      <point x="101" y="722" type="curve"/>
      <point x="101" y="612"/>
      <point x="101" y="722"/>
      <point x="101" y="612" type="curve"/>
      <point x="101" y="612"/>
      <point x="101" y="612"/>
      <point x="101" y="612" type="curve"/>
    </contour>
    <contour>
      <point x="101" y="0"/>
      <point x="101" y="110"/>
      <point x="101" y="0" type="curve"/>
      <point x="101" y="0"/>
      <point x="101" y="0"/>
      <point x="101" y="0" type="curve"/>
      <point x="101" y="110"/>
      <point x="101" y="0"/>
      <point x="101" y="110" type="curve"/>
      <point x="101" y="110"/>
      <point x="101" y="110"/>
      <point x="101" y="110" type="curve"/>
    </contour>
    <contour>
      <point x="101" y="110"/>
      <point x="101" y="0"/>
      <point x="101" y="110" type="curve"/>
      <point x="101" y="110"/>
      <point x="101" y="110"/>
      <point x="101" y="110" type="curve"/>
      <point x="101" y="0"/>
      <point x="101" y="110"/>
      <point x="101" y="0" type="curve"/>
      <point x="101" y="0"/>
      <point x="101" y="0"/>
      <point x="101" y="0" type="curve"/>
    </contour>
    <contour>
      <point x="173" y="0"/>
      <point x="30" y="0"/>
      <point x="173" y="0" type="curve"/>
      <point x="173" y="0"/>
      <point x="173" y="722"/>
      <point x="173" y="722" type="curve"/>
      <point x="30" y="722"/>
      <point x="173" y="722"/>
      <point x="30" y="722" type="curve"/>
      <point x="30" y="481"/>
      <point x="30" y="241"/>
      <point x="30" y="0" type="curve"/>
    </contour>
    <contour>
      <point x="479" y="418"/>
      <point x="479" y="307"/>
      <point x="479" y="418" type="curve"/>
      <point x="353" y="418"/>
      <point x="227" y="418"/>
      <point x="101" y="418" type="curve"/>
      <point x="101" y="307"/>
      <point x="101" y="418"/>
      <point x="101" y="307" type="curve"/>
      <point x="227" y="307"/>
      <point x="353" y="307"/>
      <point x="479" y="307" type="curve"/>
    </contour>
    <contour>
      <point x="552" y="0"/>
      <point x="409" y="0"/>
      <point x="552" y="0" type="curve"/>
      <point x="552" y="209"/>
      <point x="552" y="513"/>
      <point x="552" y="722" type="curve"/>
      <point x="409" y="722"/>
      <point x="552" y="722"/>
      <point x="409" y="722" type="curve"/>
      <point x="409" y="722"/>
      <point x="409" y="0"/>
      <point x="409" y="0" type="curve"/>
    </contour>
  </outline>
</glyph>
<glyph name="K" format="1">
  <advance width="548"/>
  <unicode hex="004B"/>
  <outline>
    <contour>
      <point x="424" y="110"/>
      <point x="412" y="2"/>
      <point x="418" y="112" type="curve"/>
      <point x="415" y="112"/>
      <point x="409" y="110"/>
      <point x="406" y="110" type="curve"/>
      <point x="406" y="0"/>
      <point x="406" y="111"/>
      <point x="406" y="1" type="curve"/>
      <point x="404" y="1"/>
      <point x="415" y="0"/>
      <point x="418" y="0" type="curve"/>
    </contour>
    <contour>
      <point x="408" y="722"/>
      <point x="408" y="612"/>
      <point x="408" y="722" type="curve"/>
      <point x="408" y="722"/>
      <point x="408" y="722"/>
      <point x="408" y="722" type="curve"/>
      <point x="408" y="612"/>
      <point x="408" y="722"/>
      <point x="408" y="612" type="curve"/>
      <point x="408" y="612"/>
      <point x="408" y="612"/>
      <point x="408" y="612" type="curve"/>
    </contour>
    <contour>
      <point x="433" y="0"/>
      <point x="433" y="110"/>
      <point x="433" y="0" type="curve"/>
      <point x="433" y="0"/>
      <point x="433" y="0"/>
      <point x="433" y="0" type="curve"/>
      <point x="433" y="110"/>
      <point x="433" y="0"/>
      <point x="433" y="110" type="curve"/>
      <point x="433" y="110"/>
      <point x="433" y="110"/>
      <point x="433" y="110" type="curve"/>
    </contour>
    <contour>
      <point x="408" y="612"/>
      <point x="408" y="722"/>
      <point x="408" y="612" type="curve"/>
      <point x="408" y="612"/>
      <point x="408" y="612"/>
      <point x="408" y="612" type="curve"/>
      <point x="408" y="722"/>
      <point x="408" y="612"/>
      <point x="408" y="722" type="curve"/>
      <point x="408" y="722"/>
      <point x="408" y="722"/>
      <point x="408" y="722" type="curve"/>
    </contour>
    <contour>
      <point x="101" y="722"/>
      <point x="101" y="612"/>
      <point x="101" y="722" type="curve"/>
      <point x="101" y="722"/>
      <point x="101" y="722"/>
      <point x="101" y="722" type="curve"/>
      <point x="101" y="612"/>
      <point x="101" y="722"/>
      <point x="101" y="612" type="curve"/>
      <point x="101" y="612"/>
      <point x="101" y="612"/>
      <point x="101" y="612" type="curve"/>
    </contour>
    <contour>
      <point x="101" y="612"/>
      <point x="101" y="722"/>
      <point x="101" y="612" type="curve"/>
      <point x="101" y="612"/>
      <point x="101" y="612"/>
      <point x="101" y="612" type="curve"/>
      <point x="101" y="722"/>
      <point x="101" y="612"/>
      <point x="101" y="722" type="curve"/>
      <point x="101" y="722"/>
      <point x="101" y="722"/>
      <point x="101" y="722" type="curve"/>
    </contour>
    <contour>
      <point x="101" y="0"/>
      <point x="101" y="110"/>
      <point x="101" y="0" type="curve"/>
      <point x="101" y="0"/>
      <point x="101" y="0"/>
      <point x="101" y="0" type="curve"/>
      <point x="101" y="110"/>
      <point x="101" y="0"/>
      <point x="101" y="110" type="curve"/>
      <point x="101" y="110"/>
      <point x="101" y="110"/>
      <point x="101" y="110" type="curve"/>
    </contour>
    <contour>
      <point x="101" y="110"/>
      <point x="101" y="0"/>
      <point x="101" y="110" type="curve"/>
      <point x="101" y="110"/>
      <point x="101" y="110"/>
      <point x="101" y="110" type="curve"/>
      <point x="101" y="0"/>
      <point x="101" y="110"/>
      <point x="101" y="0" type="curve"/>
      <point x="101" y="0"/>
      <point x="101" y="0"/>
      <point x="101" y="0" type="curve"/>
    </contour>
    <contour>
      <point x="370" y="722"/>
      <point x="519" y="722"/>
      <point x="362" y="722" type="curve"/>
      <point x="261" y="608"/>
      <point x="160" y="494"/>
      <point x="59" y="380" type="curve"/>
      <point x="211" y="380"/>
      <point x="67" y="380"/>
      <point x="219" y="380" type="curve"/>
      <point x="322" y="494"/>
      <point x="425" y="608"/>
      <point x="527" y="722" type="curve"/>
    </contour>
    <contour>
      <point x="173" y="0"/>
      <point x="30" y="0"/>
      <point x="173" y="0" type="curve"/>
      <point x="173" y="0"/>
      <point x="173" y="722"/>
      <point x="173" y="722" type="curve"/>
      <point x="30" y="722"/>
      <point x="173" y="722"/>
      <point x="30" y="722" type="curve"/>
      <point x="30" y="481"/>
      <point x="30" y="241"/>
      <point x="30" y="0" type="curve"/>
    </contour>
    <contour>
      <point x="537" y="0"/>
      <point x="387" y="0"/>
      <point x="545" y="0" type="curve"/>
      <point x="437" y="127"/>
      <point x="328" y="253"/>
      <point x="219" y="380" type="curve"/>
      <point x="67" y="380"/>
      <point x="211" y="380"/>
      <point x="59" y="380" type="curve"/>
      <point x="166" y="253"/>
      <point x="272" y="127"/>
      <point x="379" y="0" type="curve"/>
    </contour>
  </outline>
</glyph>
<glyph name="N" format="1">
  <advance width="609"/>
  <unicode hex="004E"/>
  <outline>
    <contour>
      <point x="103" y="722"/>
      <point x="103" y="612"/>
      <point x="103" y="722" type="curve"/>
      <point x="103" y="722"/>
      <point x="103" y="722"/>
      <point x="103" y="722" type="curve"/>
      <point x="103" y="612"/>
      <point x="103" y="722"/>
      <point x="103" y="612" type="curve"/>
      <point x="103" y="612"/>
      <point x="103" y="612"/>
      <point x="103" y="612" type="curve"/>
    </contour>
    <contour>
      <point x="508" y="612"/>
      <point x="508" y="722"/>
      <point x="508" y="612" type="curve"/>
      <point x="508" y="612"/>
      <point x="508" y="612"/>
      <point x="508" y="612" type="curve"/>
      <point x="508" y="722"/>
      <point x="508" y="612"/>
      <point x="508" y="722" type="curve"/>
      <point x="508" y="722"/>
      <point x="508" y="722"/>
      <point x="508" y="722" type="curve"/>
    </contour>
    <contour>
      <point x="508" y="722"/>
      <point x="508" y="612"/>
      <point x="508" y="722" type="curve"/>
      <point x="508" y="722"/>
      <point x="508" y="722"/>
      <point x="508" y="722" type="curve"/>
      <point x="508" y="612"/>
      <point x="508" y="722"/>
      <point x="508" y="612" type="curve"/>
      <point x="508" y="612"/>
      <point x="508" y="612"/>
      <point x="508" y="612" type="curve"/>
    </contour>
    <contour>
      <point x="102" y="110"/>
      <point x="102" y="0"/>
      <point x="102" y="110" type="curve"/>
      <point x="102" y="110"/>
      <point x="102" y="110"/>
      <point x="102" y="110" type="curve"/>
      <point x="102" y="0"/>
      <point x="102" y="110"/>
      <point x="102" y="0" type="curve"/>
      <point x="102" y="0"/>
      <point x="102" y="0"/>
      <point x="102" y="0" type="curve"/>
    </contour>
    <contour>
      <point x="102" y="0"/>
      <point x="102" y="110"/>
      <point x="102" y="0" type="curve"/>
      <point x="102" y="0"/>
      <point x="102" y="0"/>
      <point x="102" y="0" type="curve"/>
      <point x="102" y="110"/>
      <point x="102" y="0"/>
      <point x="102" y="110" type="curve"/>
      <point x="102" y="110"/>
      <point x="102" y="110"/>
      <point x="102" y="110" type="curve"/>
    </contour>
    <contour>
      <point x="579" y="0"/>
      <point x="431" y="0"/>
      <point x="579" y="0" type="curve"/>
      <point x="446" y="241"/>
      <point x="312" y="481"/>
      <point x="178" y="722" type="curve"/>
      <point x="30" y="722"/>
      <point x="178" y="722"/>
      <point x="30" y="722" type="curve"/>
      <point x="164" y="481"/>
      <point x="298" y="241"/>
      <point x="431" y="0" type="curve"/>
    </contour>
    <contour>
      <point x="436" y="722"/>
      <point x="579" y="722"/>
      <point x="436" y="722" type="curve"/>
      <point x="436" y="481"/>
      <point x="436" y="241"/>
      <point x="436" y="0" type="curve"/>
      <point x="579" y="0"/>
      <point x="436" y="0"/>
      <point x="579" y="0" type="curve"/>
      <point x="579" y="241"/>
      <point x="579" y="481"/>
      <point x="579" y="722" type="curve"/>
    </contour>
    <contour>
      <point x="174" y="0"/>
      <point x="31" y="0"/>
      <point x="174" y="0" type="curve"/>
      <point x="174" y="241"/>
      <point x="174" y="481"/>
      <point x="174" y="722" type="curve"/>
      <point x="31" y="722"/>
      <point x="174" y="722"/>
      <point x="31" y="722" type="curve"/>
      <point x="31" y="481"/>
      <point x="31" y="241"/>
      <point x="31" y="0" type="curve"/>
    </contour>
  </outline>
</glyph>
<glyph name="P" format="1">
  <advance width="475"/>
  <unicode hex="0050"/>
  <outline>
    <contour>
      <point x="102" y="722"/>
      <point x="102" y="612"/>
      <point x="102" y="722" type="curve"/>
      <point x="102" y="722"/>
      <point x="102" y="722"/>
      <point x="102" y="722" type="curve"/>
      <point x="102" y="612"/>
      <point x="102" y="722"/>
      <point x="102" y="612" type="curve"/>
      <point x="102" y="612"/>
      <point x="102" y="612"/>
      <point x="102" y="612" type="curve"/>
    </contour>
    <contour>
      <point x="102" y="110"/>
      <point x="102" y="0"/>
      <point x="102" y="110" type="curve"/>
      <point x="102" y="110"/>
      <point x="102" y="110"/>
      <point x="102" y="110" type="curve"/>
      <point x="102" y="0"/>
      <point x="102" y="110"/>
      <point x="102" y="0" type="curve"/>
      <point x="102" y="0"/>
      <point x="102" y="0"/>
      <point x="102" y="0" type="curve"/>
    </contour>
    <contour>
      <point x="102" y="0"/>
      <point x="102" y="110"/>
      <point x="102" y="0" type="curve"/>
      <point x="102" y="0"/>
      <point x="102" y="0"/>
      <point x="102" y="0" type="curve"/>
      <point x="102" y="110"/>
      <point x="102" y="0"/>
      <point x="102" y="110" type="curve"/>
      <point x="102" y="110"/>
      <point x="102" y="110"/>
      <point x="102" y="110" type="curve"/>
    </contour>
    <contour>
      <point x="81" y="289"/>
      <point x="126" y="392"/>
      <point x="81" y="292" type="curve"/>
      <point x="123" y="267"/>
      <point x="163" y="248"/>
      <point x="213" y="248" type="curve"/>
      <point x="354" y="250"/>
      <point x="445" y="339"/>
      <point x="445" y="479" type="curve"/>
      <point x="445" y="624"/>
      <point x="353" y="722"/>
      <point x="209" y="722" type="curve"/>
      <point x="174" y="722"/>
      <point x="139" y="722"/>
      <point x="105" y="722" type="curve"/>
      <point x="104" y="612"/>
      <point x="105" y="722"/>
      <point x="104" y="612" type="curve"/>
      <point x="133" y="612"/>
      <point x="161" y="612"/>
      <point x="190" y="612" type="curve"/>
      <point x="263" y="612"/>
      <point x="302" y="552"/>
      <point x="302" y="474" type="curve"/>
      <point x="302" y="409"/>
      <point x="282" y="355"/>
      <point x="226" y="355" type="curve"/>
      <point x="186" y="355"/>
      <point x="160" y="369"/>
      <point x="126" y="389" type="curve"/>
    </contour>
    <contour>
      <point x="173" y="0"/>
      <point x="30" y="0"/>
      <point x="173" y="0" type="curve"/>
      <point x="173" y="241"/>
      <point x="173" y="481"/>
      <point x="173" y="722" type="curve"/>
      <point x="30" y="722"/>
      <point x="173" y="722"/>
      <point x="30" y="722" type="curve"/>
      <point x="30" y="481"/>
      <point x="30" y="241"/>
      <point x="30" y="0" type="curve"/>
    </contour>
  </outline>
</glyph>
<glyph name="R" format="1">
  <advance width="553"/>
  <unicode hex="0052"/>
  <outline>
    <contour>
      <point x="438" y="0"/>
      <point x="438" y="110"/>
      <point x="438" y="0" type="curve"/>
      <point x="438" y="0"/>
      <point x="438" y="0"/>
      <point x="438" y="0" type="curve"/>
      <point x="438" y="110"/>
      <point x="438" y="0"/>
      <point x="438" y="110" type="curve"/>
      <point x="438" y="110"/>
      <point x="438" y="110"/>
      <point x="438" y="110" type="curve"/>
    </contour>
    <contour>
      <point x="101" y="722"/>
      <point x="101" y="612"/>
      <point x="101" y="722" type="curve"/>
      <point x="101" y="722"/>
      <point x="101" y="722"/>
      <point x="101" y="722" type="curve"/>
      <point x="101" y="612"/>
      <point x="101" y="722"/>
      <point x="101" y="612" type="curve"/>
      <point x="101" y="612"/>
      <point x="101" y="612"/>
      <point x="101" y="612" type="curve"/>
    </contour>
    <contour>
      <point x="101" y="110"/>
      <point x="101" y="0"/>
      <point x="101" y="110" type="curve"/>
      <point x="101" y="110"/>
      <point x="101" y="110"/>
      <point x="101" y="110" type="curve"/>
      <point x="101" y="0"/>
      <point x="101" y="110"/>
      <point x="101" y="0" type="curve"/>
      <point x="101" y="0"/>
      <point x="101" y="0"/>
      <point x="101" y="0" type="curve"/>
    </contour>
    <contour>
      <point x="101" y="0"/>
      <point x="101" y="110"/>
      <point x="101" y="0" type="curve"/>
      <point x="101" y="0"/>
      <point x="101" y="0"/>
      <point x="101" y="0" type="curve"/>
      <point x="101" y="110"/>
      <point x="101" y="0"/>
      <point x="101" y="110" type="curve"/>
      <point x="101" y="110"/>
      <point x="101" y="110"/>
      <point x="101" y="110" type="curve"/>
    </contour>
    <contour>
      <point x="182" y="354"/>
      <point x="330" y="354"/>
      <point x="182" y="354" type="curve"/>
      <point x="246" y="236"/>
      <point x="310" y="118"/>
      <point x="374" y="0" type="curve"/>
      <point x="522" y="0"/>
      <point x="374" y="0"/>
      <point x="522" y="0" type="curve"/>
      <point x="458" y="118"/>
      <point x="394" y="236"/>
      <point x="330" y="354" type="curve"/>
    </contour>
    <contour>
      <point x="173" y="0"/>
      <point x="30" y="0"/>
      <point x="173" y="0" type="curve"/>
      <point x="173" y="241"/>
      <point x="173" y="481"/>
      <point x="173" y="722" type="curve"/>
      <point x="30" y="722"/>
      <point x="173" y="722"/>
      <point x="30" y="722" type="curve"/>
      <point x="30" y="481"/>
      <point x="30" y="241"/>
      <point x="30" y="0" type="curve"/>
    </contour>
    <contour>
      <point x="103" y="297"/>
      <point x="103" y="408"/>
      <point x="103" y="297" type="curve"/>
      <point x="143" y="297"/>
      <point x="182" y="297"/>
      <point x="222" y="297" type="curve"/>
      <point x="367" y="297"/>
      <point x="457" y="377"/>
      <point x="457" y="519" type="curve"/>
      <point x="457" y="648"/>
      <point x="378" y="722"/>
      <point x="248" y="722" type="curve"/>
      <point x="200" y="722"/>
      <point x="151" y="722"/>
      <point x="103" y="722" type="curve"/>
      <point x="103" y="612"/>
      <point x="103" y="722"/>
      <point x="103" y="612" type="curve"/>
      <point x="143" y="612"/>
      <point x="182" y="612"/>
      <point x="222" y="612" type="curve"/>
      <point x="283" y="612"/>
      <point x="314" y="570"/>
      <point x="314" y="508" type="curve"/>
      <point x="314" y="450"/>
      <point x="294" y="408"/>
      <point x="241" y="408" type="curve"/>
      <point x="195" y="408"/>
      <point x="149" y="408"/>
      <point x="103" y="408" type="curve"/>
    </contour>
  </outline>
</glyph>
<glyph name="S" format="1">
  <advance width="484"/>
  <unicode hex="0053"/>
  <outline>
    <contour>
      <point x="295" y="661"/>
      <point x="407" y="661"/>
      <point x="295" y="661" type="curve"/>
      <point x="295" y="661"/>
      <point x="295" y="661"/>
      <point x="295" y="661" type="curve"/>
      <point x="407" y="661"/>
      <point x="295" y="661"/>
      <point x="407" y="661" type="curve"/>
      <point x="407" y="661"/>
      <point x="407" y="661"/>
      <point x="407" y="661" type="curve"/>
    </contour>
    <contour>
      <point x="152" y="53"/>
      <point x="40" y="53"/>
      <point x="152" y="53" type="curve"/>
      <point x="152" y="53"/>
      <point x="152" y="53"/>
      <point x="152" y="53" type="curve"/>
      <point x="40" y="53"/>
      <point x="152" y="53"/>
      <point x="40" y="53" type="curve"/>
      <point x="40" y="53"/>
      <point x="40" y="53"/>
      <point x="40" y="53" type="curve"/>
    </contour>
    <contour>
      <point x="40" y="53"/>
      <point x="118" y="158"/>
      <point x="40" y="53" type="curve"/>
      <point x="95" y="13"/>
      <point x="147" y="0"/>
      <point x="214" y="0" type="curve"/>
      <point x="350" y="0"/>
      <point x="454" y="67"/>
      <point x="454" y="194" type="curve"/>
      <point x="454" y="304"/>
      <point x="379" y="363"/>
      <point x="281" y="418" type="curve"/>
      <point x="224" y="450"/>
      <point x="173" y="489"/>
      <point x="173" y="536" type="curve"/>
      <point x="173" y="576"/>
      <point x="198" y="609"/>
      <point x="230" y="609" type="curve"/>
      <point x="276" y="609"/>
      <point x="294" y="601"/>
      <point x="342" y="573" type="curve"/>
      <point x="407" y="661"/>
      <point x="342" y="573"/>
      <point x="407" y="661" type="curve"/>
      <point x="352" y="700"/>
      <point x="303" y="717"/>
      <point x="236" y="717" type="curve"/>
      <point x="116" y="717"/>
      <point x="30" y="649"/>
      <point x="30" y="534" type="curve"/>
      <point x="30" y="429"/>
      <point x="104" y="376"/>
      <point x="196" y="324" type="curve"/>
      <point x="257" y="291"/>
      <point x="311" y="245"/>
      <point x="311" y="194" type="curve"/>
      <point x="311" y="143"/>
      <point x="277" y="115"/>
      <point x="227" y="115" type="curve"/>
      <point x="184" y="115"/>
      <point x="154" y="133"/>
      <point x="118" y="158" type="curve"/>
    </contour>
  </outline>
</glyph>
<glyph name="U" format="1">
  <advance width="578"/>
  <unicode hex="0055"/>
  <outline>
    <contour>
      <point x="477" y="612"/>
      <point x="477" y="722"/>
      <point x="477" y="612" type="curve"/>
      <point x="477" y="612"/>
      <point x="477" y="612"/>
      <point x="477" y="612" type="curve"/>
      <point x="477" y="722"/>
      <point x="477" y="612"/>
      <point x="477" y="722" type="curve"/>
      <point x="477" y="722"/>
      <point x="477" y="722"/>
      <point x="477" y="722" type="curve"/>
    </contour>
    <contour>
      <point x="477" y="722"/>
      <point x="477" y="612"/>
      <point x="477" y="722" type="curve"/>
      <point x="477" y="722"/>
      <point x="477" y="722"/>
      <point x="477" y="722" type="curve"/>
      <point x="477" y="612"/>
      <point x="477" y="722"/>
      <point x="477" y="612" type="curve"/>
      <point x="477" y="612"/>
      <point x="477" y="612"/>
      <point x="477" y="612" type="curve"/>
    </contour>
    <contour>
      <point x="102" y="722"/>
      <point x="102" y="612"/>
      <point x="102" y="722" type="curve"/>
      <point x="102" y="722"/>
      <point x="102" y="722"/>
      <point x="102" y="722" type="curve"/>
      <point x="102" y="612"/>
      <point x="102" y="722"/>
      <point x="102" y="612" type="curve"/>
      <point x="102" y="612"/>
      <point x="102" y="612"/>
      <point x="102" y="612" type="curve"/>
    </contour>
    <contour>
      <point x="102" y="612"/>
      <point x="102" y="722"/>
      <point x="102" y="612" type="curve"/>
      <point x="102" y="612"/>
      <point x="102" y="612"/>
      <point x="102" y="612" type="curve"/>
      <point x="102" y="722"/>
      <point x="102" y="612"/>
      <point x="102" y="722" type="curve"/>
      <point x="102" y="722"/>
      <point x="102" y="722"/>
      <point x="102" y="722" type="curve"/>
    </contour>
    <contour>
      <point x="30" y="722"/>
      <point x="173" y="722"/>
      <point x="30" y="722" type="curve"/>
      <point x="30" y="569"/>
      <point x="30" y="415"/>
      <point x="30" y="262" type="curve"/>
      <point x="30" y="65"/>
      <point x="101" y="-50"/>
      <point x="285" y="-50" type="curve"/>
      <point x="474" y="-50"/>
      <point x="548" y="70"/>
      <point x="548" y="272" type="curve"/>
      <point x="548" y="422"/>
      <point x="548" y="572"/>
      <point x="548" y="722" type="curve"/>
      <point x="405" y="722"/>
      <point x="548" y="722"/>
      <point x="405" y="722" type="curve"/>
      <point x="405" y="565"/>
      <point x="405" y="407"/>
      <point x="405" y="250" type="curve"/>
      <point x="405" y="144"/>
      <point x="390" y="72"/>
      <point x="298" y="72" type="curve"/>
      <point x="189" y="72"/>
      <point x="173" y="159"/>
      <point x="173" y="284" type="curve"/>
      <point x="173" y="430"/>
      <point x="173" y="576"/>
      <point x="173" y="722" type="curve"/>
    </contour>
  </outline>
</glyph>
<glyph name="V" format="1">
  <advance width="630"/>
  <unicode hex="0056"/>
  <outline>
    <contour>
      <point x="518" y="722"/>
      <point x="518" y="612"/>
      <point x="518" y="722" type="curve"/>
      <point x="461" y="722"/>
      <point x="571" y="722"/>
      <point x="514" y="722" type="curve"/>
      <point x="514" y="612"/>
      <point x="514" y="722"/>
      <point x="514" y="612" type="curve"/>
      <point x="684" y="612"/>
      <point x="348" y="612"/>
      <point x="518" y="612" type="curve"/>
    </contour>
    <contour>
      <point x="112" y="722"/>
      <point x="111" y="612"/>
      <point x="112" y="722" type="curve"/>
      <point x="112" y="722"/>
      <point x="112" y="722"/>
      <point x="112" y="722" type="curve"/>
      <point x="111" y="612"/>
      <point x="112" y="722"/>
      <point x="111" y="612" type="curve"/>
      <point x="111" y="612"/>
      <point x="111" y="612"/>
      <point x="111" y="612" type="curve"/>
    </contour>
    <contour>
      <point x="518" y="612"/>
      <point x="518" y="722"/>
      <point x="518" y="612" type="curve"/>
      <point x="518" y="612"/>
      <point x="518" y="612"/>
      <point x="518" y="612" type="curve"/>
      <point x="518" y="722"/>
      <point x="518" y="612"/>
      <point x="518" y="722" type="curve"/>
      <point x="518" y="722"/>
      <point x="518" y="722"/>
      <point x="518" y="722" type="curve"/>
    </contour>
    <contour>
      <point x="112" y="612"/>
      <point x="112" y="722"/>
      <point x="112" y="612" type="curve"/>
      <point x="281" y="612"/>
      <point x="-42" y="612"/>
      <point x="127" y="612" type="curve"/>
      <point x="127" y="722"/>
      <point x="127" y="612"/>
      <point x="127" y="722" type="curve"/>
      <point x="71" y="722"/>
      <point x="168" y="722"/>
      <point x="112" y="722" type="curve"/>
    </contour>
    <contour>
      <point x="455" y="722"/>
      <point x="600" y="722"/>
      <point x="455" y="722" type="curve"/>
      <point x="385" y="481"/>
      <point x="315" y="241"/>
      <point x="246" y="0" type="curve"/>
      <point x="392" y="0"/>
      <point x="246" y="0"/>
      <point x="392" y="0" type="curve"/>
      <point x="461" y="241"/>
      <point x="530" y="481"/>
      <point x="600" y="722" type="curve"/>
    </contour>
    <contour>
      <point x="30" y="722"/>
      <point x="175" y="722"/>
      <point x="30" y="722" type="curve"/>
      <point x="100" y="481"/>
      <point x="171" y="241"/>
      <point x="242" y="0" type="curve"/>
      <point x="387" y="0"/>
      <point x="242" y="0"/>
      <point x="387" y="0" type="curve"/>
      <point x="316" y="241"/>
      <point x="245" y="481"/>
      <point x="175" y="722" type="curve"/>
    </contour>
  </outline>
</glyph>
<glyph name="W" format="1">
  <advance width="754"/>
  <unicode hex="0057"/>
  <outline>
    <contour>
      <point x="380" y="612"/>
      <point x="380" y="722"/>
      <point x="380" y="612" type="curve"/>
      <point x="380" y="612"/>
      <point x="380" y="612"/>
      <point x="380" y="612" type="curve"/>
      <point x="380" y="722"/>
      <point x="380" y="612"/>
      <point x="380" y="722" type="curve"/>
      <point x="380" y="722"/>
      <point x="380" y="722"/>
      <point x="380" y="722" type="curve"/>
    </contour>
    <contour>
      <point x="380" y="722"/>
      <point x="380" y="612"/>
      <point x="380" y="722" type="curve"/>
      <point x="380" y="722"/>
      <point x="380" y="722"/>
      <point x="380" y="722" type="curve"/>
      <point x="380" y="612"/>
      <point x="380" y="722"/>
      <point x="380" y="612" type="curve"/>
      <point x="380" y="612"/>
      <point x="380" y="612"/>
      <point x="380" y="612" type="curve"/>
    </contour>
    <contour>
      <point x="101" y="612"/>
      <point x="101" y="722"/>
      <point x="101" y="612" type="curve"/>
      <point x="101" y="612"/>
      <point x="101" y="612"/>
      <point x="101" y="612" type="curve"/>
      <point x="101" y="722"/>
      <point x="101" y="612"/>
      <point x="101" y="722" type="curve"/>
      <point x="101" y="722"/>
      <point x="101" y="722"/>
      <point x="101" y="722" type="curve"/>
    </contour>
    <contour>
      <point x="101" y="722"/>
      <point x="101" y="612"/>
      <point x="101" y="722" type="curve"/>
      <point x="101" y="722"/>
      <point x="101" y="722"/>
      <point x="101" y="722" type="curve"/>
      <point x="101" y="612"/>
      <point x="101" y="722"/>
      <point x="101" y="612" type="curve"/>
      <point x="101" y="612"/>
      <point x="101" y="612"/>
      <point x="101" y="612" type="curve"/>
    </contour>
    <contour>
      <point x="653" y="722"/>
      <point x="653" y="612"/>
      <point x="653" y="722" type="curve"/>
      <point x="653" y="722"/>
      <point x="653" y="722"/>
      <point x="653" y="722" type="curve"/>
      <point x="653" y="612"/>
      <point x="653" y="722"/>
      <point x="653" y="612" type="curve"/>
      <point x="653" y="612"/>
      <point x="653" y="612"/>
      <point x="653" y="612" type="curve"/>
    </contour>
    <contour>
      <point x="653" y="612"/>
      <point x="653" y="722"/>
      <point x="653" y="612" type="curve"/>
      <point x="653" y="612"/>
      <point x="653" y="612"/>
      <point x="653" y="612" type="curve"/>
      <point x="653" y="722"/>
      <point x="653" y="612"/>
      <point x="653" y="722" type="curve"/>
      <point x="653" y="722"/>
      <point x="653" y="722"/>
      <point x="653" y="722" type="curve"/>
    </contour>
    <contour>
      <point x="288" y="0"/>
      <point x="171" y="0"/>
      <point x="288" y="0" type="curve"/>
      <point x="338" y="241"/>
      <point x="388" y="481"/>
      <point x="439" y="722" type="curve"/>
      <point x="318" y="722"/>
      <point x="439" y="722"/>
      <point x="318" y="722" type="curve"/>
      <point x="269" y="481"/>
      <point x="220" y="241"/>
      <point x="171" y="0" type="curve"/>
    </contour>
    <contour>
      <point x="323" y="722"/>
      <point x="444" y="722"/>
      <point x="323" y="722" type="curve"/>
      <point x="369" y="481"/>
      <point x="414" y="241"/>
      <point x="459" y="0" type="curve"/>
      <point x="576" y="0"/>
      <point x="459" y="0"/>
      <point x="576" y="0" type="curve"/>
      <point x="532" y="241"/>
      <point x="488" y="481"/>
      <point x="444" y="722" type="curve"/>
    </contour>
    <contour>
      <point x="30" y="722"/>
      <point x="152" y="722"/>
      <point x="30" y="722" type="curve"/>
      <point x="76" y="481"/>
      <point x="121" y="241"/>
      <point x="167" y="0" type="curve"/>
      <point x="283" y="0"/>
      <point x="167" y="0"/>
      <point x="283" y="0" type="curve"/>
      <point x="240" y="241"/>
      <point x="196" y="481"/>
      <point x="152" y="722" type="curve"/>
    </contour>
    <contour>
      <point x="601" y="722"/>
      <point x="723" y="722"/>
      <point x="601" y="722" type="curve"/>
      <point x="555" y="481"/>
      <point x="509" y="241"/>
      <point x="464" y="0" type="curve"/>
      <point x="580" y="0"/>
      <point x="464" y="0"/>
      <point x="580" y="0" type="curve"/>
      <point x="628" y="241"/>
      <point x="675" y="481"/>
      <point x="723" y="722" type="curve"/>
    </contour>
  </outline>
</glyph>
<glyph name="bracketleft" format="1">
  <advance width="241"/>
  <unicode hex="005B"/>
  <outline>
    <contour>
      <point x="211" y="769"/>
      <point x="211" y="648"/>
      <point x="211" y="769" type="curve"/>
      <point x="173" y="769"/>
      <point x="135" y="769"/>
      <point x="96" y="769" type="curve"/>
      <point x="78" y="769"/>
      <point x="55" y="769"/>
      <point x="30" y="769" type="curve"/>
      <point x="30" y="751"/>
      <point x="30" y="733"/>
      <point x="30" y="714" type="curve"/>
      <point x="30" y="456"/>
      <point x="30" y="199"/>
      <point x="30" y="-59" type="curve"/>
      <point x="30" y="-80"/>
      <point x="30" y="-89"/>
      <point x="30" y="-113" type="curve"/>
      <point x="51" y="-113"/>
      <point x="75" y="-113"/>
      <point x="96" y="-113" type="curve"/>
      <point x="134" y="-113"/>
      <point x="173" y="-113"/>
      <point x="211" y="-113" type="curve"/>
      <point x="211" y="9"/>
      <point x="211" y="-113"/>
      <point x="211" y="9" type="curve"/>
      <point x="173" y="9"/>
      <point x="134" y="9"/>
      <point x="96" y="9" type="curve"/>
      <point x="173" y="9"/>
      <point x="96" y="9"/>
      <point x="173" y="9" type="curve"/>
      <point x="173" y="-59"/>
      <point x="173" y="9"/>
      <point x="173" y="-59" type="curve"/>
      <point x="173" y="199"/>
      <point x="173" y="456"/>
      <point x="173" y="714" type="curve"/>
      <point x="173" y="648"/>
      <point x="173" y="714"/>
      <point x="173" y="648" type="curve"/>
      <point x="96" y="648"/>
      <point x="173" y="648"/>
      <point x="96" y="648" type="curve"/>
      <point x="135" y="648"/>
      <point x="173" y="648"/>
      <point x="211" y="648" type="curve"/>
    </contour>
  </outline>
</glyph>
<glyph name="backslash" format="1">
  <advance width="503"/>
  <unicode hex="005C"/>
  <outline>
    <contour>
      <point x="474" y="-68"/>
      <point x="324" y="-68"/>
      <point x="474" y="-68" type="curve"/>
      <point x="376" y="236"/>
      <point x="278" y="540"/>
      <point x="180" y="844" type="curve"/>
      <point x="30" y="844"/>
      <point x="180" y="844"/>
      <point x="30" y="844" type="curve"/>
      <point x="128" y="540"/>
      <point x="226" y="236"/>
      <point x="324" y="-68" type="curve"/>
    </contour>
  </outline>
</glyph>
<glyph name="c" format="1">
  <advance width="472"/>
  <unicode hex="0063"/>
  <outline>
    <contour>
      <point x="316" y="469"/>
      <point x="428" y="469"/>
      <point x="316" y="469" type="curve"/>
      <point x="316" y="469"/>
      <point x="316" y="469"/>
      <point x="316" y="469" type="curve"/>
      <point x="428" y="469"/>
      <point x="316" y="469"/>
      <point x="428" y="469" type="curve"/>
      <point x="428" y="469"/>
      <point x="428" y="469"/>
      <point x="428" y="469" type="curve"/>
    </contour>
    <contour>
      <point x="428" y="469"/>
      <point x="343" y="392"/>
      <point x="428" y="469" type="curve"/>
      <point x="386" y="507"/>
      <point x="331" y="538"/>
      <point x="272" y="538" type="curve"/>
      <point x="114" y="538"/>
      <point x="30" y="435"/>
      <point x="30" y="267" type="curve"/>
      <point x="30" y="100"/>
      <point x="109" y="-5"/>
      <point x="265" y="-5" type="curve"/>
      <point x="334" y="-5"/>
      <point x="401" y="24"/>
      <point x="442" y="79" type="curve"/>
      <point x="344" y="162"/>
      <point x="442" y="79"/>
      <point x="344" y="162" type="curve"/>
      <point x="325" y="137"/>
      <point x="303" y="110"/>
      <point x="272" y="110" type="curve"/>
      <point x="195" y="110"/>
      <point x="173" y="177"/>
      <point x="173" y="267" type="curve"/>
      <point x="173" y="356"/>
      <point x="191" y="423"/>
      <point x="266" y="423" type="curve"/>
      <point x="295" y="423"/>
      <point x="322" y="410"/>
      <point x="343" y="392" type="curve"/>
    </contour>
  </outline>
</glyph>
<glyph name="f" format="1">
  <advance width="407"/>
  <unicode hex="0066"/>
  <outline>
    <contour>
      <point x="266" y="764"/>
      <point x="378" y="764"/>
      <point x="266" y="764" type="curve"/>
      <point x="266" y="764"/>
      <point x="266" y="764"/>
      <point x="266" y="764" type="curve"/>
      <point x="378" y="764"/>
      <point x="266" y="764"/>
      <point x="378" y="764" type="curve"/>
      <point x="378" y="764"/>
      <point x="378" y="764"/>
      <point x="378" y="764" type="curve"/>
    </contour>
    <contour>
      <point x="169" y="-1"/>
      <point x="169" y="110"/>
      <point x="169" y="-1" type="curve"/>
      <point x="169" y="-1"/>
      <point x="169" y="-1"/>
      <point x="169" y="-1" type="curve"/>
      <point x="169" y="110"/>
      <point x="169" y="-1"/>
      <point x="169" y="110" type="curve"/>
      <point x="169" y="110"/>
      <point x="169" y="110"/>
      <point x="169" y="110" type="curve"/>
    </contour>
    <contour>
      <point x="169" y="110"/>
      <point x="169" y="-1"/>
      <point x="169" y="110" type="curve"/>
      <point x="169" y="110"/>
      <point x="169" y="110"/>
      <point x="169" y="110" type="curve"/>
      <point x="169" y="-1"/>
      <point x="169" y="110"/>
      <point x="169" y="-1" type="curve"/>
      <point x="169" y="-1"/>
      <point x="169" y="-1"/>
      <point x="169" y="-1" type="curve"/>
    </contour>
    <contour>
      <point x="30" y="431"/>
      <point x="30" y="541"/>
      <point x="30" y="431" type="curve"/>
      <point x="30" y="431"/>
      <point x="346" y="431"/>
      <point x="346" y="431" type="curve"/>
      <point x="346" y="541"/>
      <point x="346" y="431"/>
      <point x="346" y="541" type="curve"/>
      <point x="346" y="541"/>
      <point x="30" y="541"/>
      <point x="30" y="541" type="curve"/>
    </contour>
    <contour>
      <point x="240" y="0"/>
      <point x="97" y="0"/>
      <point x="240" y="0" type="curve"/>
      <point x="240" y="0"/>
      <point x="240" y="604"/>
      <point x="240" y="604" type="curve"/>
      <point x="240" y="650"/>
      <point x="235" y="694"/>
      <point x="271" y="694" type="curve"/>
      <point x="289" y="694"/>
      <point x="305" y="685"/>
      <point x="319" y="676" type="curve"/>
      <point x="378" y="764"/>
      <point x="319" y="676"/>
      <point x="378" y="764" type="curve"/>
      <point x="346" y="785"/>
      <point x="309" y="800"/>
      <point x="271" y="800" type="curve"/>
      <point x="160" y="800"/>
      <point x="96" y="720"/>
      <point x="97" y="604" type="curve"/>
      <point x="97" y="604"/>
      <point x="97" y="0"/>
      <point x="97" y="0" type="curve"/>
    </contour>
  </outline>
</glyph>
<glyph name="h" format="1">
  <advance width="482"/>
  <unicode hex="0068"/>
  <outline>
    <contour>
      <point x="380" y="-1"/>
      <point x="380" y="110"/>
      <point x="380" y="-1" type="curve"/>
      <point x="380" y="-1"/>
      <point x="380" y="-1"/>
      <point x="380" y="-1" type="curve"/>
      <point x="380" y="110"/>
      <point x="380" y="-1"/>
      <point x="380" y="110" type="curve"/>
      <point x="380" y="110"/>
      <point x="380" y="110"/>
      <point x="380" y="110" type="curve"/>
    </contour>
    <contour>
      <point x="101" y="-1"/>
      <point x="101" y="110"/>
      <point x="101" y="-1" type="curve"/>
      <point x="101" y="-1"/>
      <point x="101" y="-1"/>
      <point x="101" y="-1" type="curve"/>
      <point x="101" y="110"/>
      <point x="101" y="-1"/>
      <point x="101" y="110" type="curve"/>
      <point x="101" y="110"/>
      <point x="101" y="110"/>
      <point x="101" y="110" type="curve"/>
    </contour>
    <contour>
      <point x="101" y="799"/>
      <point x="101" y="689"/>
      <point x="101" y="799" type="curve"/>
      <point x="101" y="799"/>
      <point x="101" y="799"/>
      <point x="101" y="799" type="curve"/>
      <point x="101" y="689"/>
      <point x="101" y="799"/>
      <point x="101" y="689" type="curve"/>
      <point x="101" y="689"/>
      <point x="101" y="689"/>
      <point x="101" y="689" type="curve"/>
    </contour>
    <contour>
      <point x="101" y="110"/>
      <point x="101" y="-1"/>
      <point x="101" y="110" type="curve"/>
      <point x="101" y="110"/>
      <point x="101" y="110"/>
      <point x="101" y="110" type="curve"/>
      <point x="101" y="-1"/>
      <point x="101" y="110"/>
      <point x="101" y="-1" type="curve"/>
      <point x="101" y="-1"/>
      <point x="101" y="-1"/>
      <point x="101" y="-1" type="curve"/>
    </contour>
    <contour>
      <point x="380" y="110"/>
      <point x="380" y="-1"/>
      <point x="380" y="110" type="curve"/>
      <point x="380" y="110"/>
      <point x="380" y="110"/>
      <point x="380" y="110" type="curve"/>
      <point x="380" y="-1"/>
      <point x="380" y="110"/>
      <point x="380" y="-1" type="curve"/>
      <point x="380" y="-1"/>
      <point x="380" y="-1"/>
      <point x="380" y="-1" type="curve"/>
    </contour>
    <contour>
      <point x="140" y="301"/>
      <point x="105" y="356"/>
      <point x="140" y="301" type="curve"/>
      <point x="159" y="361"/>
      <point x="194" y="423"/>
      <point x="253" y="423" type="curve"/>
      <point x="308" y="423"/>
      <point x="309" y="371"/>
      <point x="309" y="308" type="curve"/>
      <point x="309" y="205"/>
      <point x="309" y="103"/>
      <point x="309" y="0" type="curve"/>
      <point x="452" y="0"/>
      <point x="309" y="0"/>
      <point x="452" y="0" type="curve"/>
      <point x="452" y="106"/>
      <point x="452" y="213"/>
      <point x="452" y="319" type="curve"/>
      <point x="452" y="444"/>
      <point x="420" y="533"/>
      <point x="309" y="533" type="curve"/>
      <point x="208" y="533"/>
      <point x="127" y="455"/>
      <point x="105" y="356" type="curve"/>
    </contour>
    <contour>
      <point x="173" y="0"/>
      <point x="30" y="0"/>
      <point x="173" y="0" type="curve"/>
      <point x="173" y="267"/>
      <point x="173" y="533"/>
      <point x="173" y="800" type="curve"/>
      <point x="30" y="800"/>
      <point x="173" y="800"/>
      <point x="30" y="800" type="curve"/>
      <point x="30" y="533"/>
      <point x="30" y="267"/>
      <point x="30" y="0" type="curve"/>
    </contour>
  </outline>
</glyph>
<glyph name="k" format="1">
  <advance width="509"/>
  <unicode hex="006B"/>
  <outline>
    <contour>
      <point x="101" y="110"/>
      <point x="101" y="-1"/>
      <point x="101" y="110" type="curve"/>
      <point x="101" y="110"/>
      <point x="101" y="110"/>
      <point x="101" y="110" type="curve"/>
      <point x="101" y="-1"/>
      <point x="101" y="110"/>
      <point x="101" y="-1" type="curve"/>
      <point x="101" y="-1"/>
      <point x="101" y="-1"/>
      <point x="101" y="-1" type="curve"/>
    </contour>
    <contour>
      <point x="408" y="-1"/>
      <point x="408" y="110"/>
      <point x="408" y="-1" type="curve"/>
      <point x="408" y="-1"/>
      <point x="408" y="-1"/>
      <point x="408" y="-1" type="curve"/>
      <point x="408" y="110"/>
      <point x="408" y="-1"/>
      <point x="408" y="110" type="curve"/>
      <point x="408" y="110"/>
      <point x="408" y="110"/>
      <point x="408" y="110" type="curve"/>
    </contour>
    <contour>
      <point x="388" y="423"/>
      <point x="388" y="533"/>
      <point x="388" y="423" type="curve"/>
      <point x="388" y="423"/>
      <point x="388" y="423"/>
      <point x="388" y="423" type="curve"/>
      <point x="388" y="533"/>
      <point x="388" y="423"/>
      <point x="388" y="533" type="curve"/>
      <point x="388" y="533"/>
      <point x="388" y="533"/>
      <point x="388" y="533" type="curve"/>
    </contour>
    <contour>
      <point x="101" y="-1"/>
      <point x="101" y="110"/>
      <point x="101" y="-1" type="curve"/>
      <point x="101" y="-1"/>
      <point x="101" y="-1"/>
      <point x="101" y="-1" type="curve"/>
      <point x="101" y="110"/>
      <point x="101" y="-1"/>
      <point x="101" y="110" type="curve"/>
      <point x="101" y="110"/>
      <point x="101" y="110"/>
      <point x="101" y="110" type="curve"/>
    </contour>
    <contour>
      <point x="388" y="533"/>
      <point x="388" y="423"/>
      <point x="388" y="533" type="curve"/>
      <point x="388" y="533"/>
      <point x="388" y="533"/>
      <point x="388" y="533" type="curve"/>
      <point x="388" y="423"/>
      <point x="388" y="533"/>
      <point x="388" y="423" type="curve"/>
      <point x="388" y="423"/>
      <point x="388" y="423"/>
      <point x="388" y="423" type="curve"/>
    </contour>
    <contour>
      <point x="102" y="799"/>
      <point x="102" y="689"/>
      <point x="102" y="799" type="curve"/>
      <point x="102" y="799"/>
      <point x="102" y="799"/>
      <point x="102" y="799" type="curve"/>
      <point x="102" y="689"/>
      <point x="102" y="799"/>
      <point x="102" y="689" type="curve"/>
      <point x="102" y="689"/>
      <point x="102" y="689"/>
      <point x="102" y="689" type="curve"/>
    </contour>
    <contour>
      <point x="173" y="0"/>
      <point x="30" y="0"/>
      <point x="173" y="0" type="curve"/>
      <point x="173" y="0"/>
      <point x="173" y="800"/>
      <point x="173" y="800" type="curve"/>
      <point x="30" y="800"/>
      <point x="173" y="800"/>
      <point x="30" y="800" type="curve"/>
      <point x="30" y="533"/>
      <point x="30" y="267"/>
      <point x="30" y="0" type="curve"/>
    </contour>
    <contour>
      <point x="330" y="533"/>
      <point x="465" y="533"/>
      <point x="310" y="533" type="curve"/>
      <point x="222" y="447"/>
      <point x="134" y="361"/>
      <point x="46" y="275" type="curve"/>
      <point x="201" y="275"/>
      <point x="66" y="275"/>
      <point x="221" y="275" type="curve"/>
      <point x="309" y="361"/>
      <point x="397" y="447"/>
      <point x="485" y="533" type="curve"/>
    </contour>
    <contour>
      <point x="484" y="0"/>
      <point x="349" y="0"/>
      <point x="504" y="0" type="curve"/>
      <point x="410" y="92"/>
      <point x="316" y="183"/>
      <point x="221" y="275" type="curve"/>
      <point x="66" y="275"/>
      <point x="201" y="275"/>
      <point x="46" y="275" type="curve"/>
      <point x="141" y="183"/>
      <point x="235" y="92"/>
      <point x="329" y="0" type="curve"/>
    </contour>
  </outline>
</glyph>
<glyph name="r" format="1">
  <advance width="319"/>
  <unicode hex="0072"/>
  <outline>
    <contour>
      <point x="101" y="0"/>
      <point x="101" y="110"/>
      <point x="101" y="0" type="curve"/>
      <point x="101" y="0"/>
      <point x="101" y="0"/>
      <point x="101" y="0" type="curve"/>
      <point x="101" y="110"/>
      <point x="101" y="0"/>
      <point x="101" y="110" type="curve"/>
      <point x="101" y="110"/>
      <point x="101" y="110"/>
      <point x="101" y="110" type="curve"/>
    </contour>
    <contour>
      <point x="101" y="110"/>
      <point x="101" y="0"/>
      <point x="101" y="110" type="curve"/>
      <point x="101" y="110"/>
      <point x="101" y="110"/>
      <point x="101" y="110" type="curve"/>
      <point x="101" y="0"/>
      <point x="101" y="110"/>
      <point x="101" y="0" type="curve"/>
      <point x="101" y="0"/>
      <point x="101" y="0"/>
      <point x="101" y="0" type="curve"/>
    </contour>
    <contour>
      <point x="101" y="533"/>
      <point x="101" y="423"/>
      <point x="101" y="533" type="curve"/>
      <point x="101" y="533"/>
      <point x="101" y="533"/>
      <point x="101" y="533" type="curve"/>
      <point x="101" y="423"/>
      <point x="101" y="533"/>
      <point x="101" y="423" type="curve"/>
      <point x="101" y="423"/>
      <point x="101" y="423"/>
      <point x="101" y="423" type="curve"/>
    </contour>
    <contour>
      <point x="173" y="0"/>
      <point x="30" y="0"/>
      <point x="173" y="0" type="curve"/>
      <point x="173" y="178"/>
      <point x="173" y="355"/>
      <point x="173" y="533" type="curve"/>
      <point x="30" y="533"/>
      <point x="173" y="533"/>
      <point x="30" y="533" type="curve"/>
      <point x="30" y="355"/>
      <point x="30" y="178"/>
      <point x="30" y="0" type="curve"/>
    </contour>
    <contour>
      <point x="131" y="351"/>
      <point x="90" y="397"/>
      <point x="131" y="351" type="curve"/>
      <point x="162" y="410"/>
      <point x="221" y="423"/>
      <point x="288" y="423" type="curve"/>
      <point x="288" y="538"/>
      <point x="288" y="423"/>
      <point x="288" y="538" type="curve"/>
      <point x="194" y="538"/>
      <point x="130" y="484"/>
      <point x="90" y="397" type="curve"/>
    </contour>
  </outline>
</glyph>
<glyph name="s" format="1">
  <advance width="421"/>
  <unicode hex="0073"/>
  <outline>
    <contour>
      <point x="30" y="47"/>
      <point x="101" y="146"/>
      <point x="30" y="47" type="curve"/>
      <point x="85" y="16"/>
      <point x="140" y="0"/>
      <point x="200" y="0" type="curve"/>
      <point x="315" y="0"/>
      <point x="390" y="52"/>
      <point x="390" y="160" type="curve"/>
      <point x="389" y="257"/>
      <point x="319" y="293"/>
      <point x="223" y="327" type="curve"/>
      <point x="189" y="339"/>
      <point x="163" y="357"/>
      <point x="163" y="384" type="curve"/>
      <point x="163" y="405"/>
      <point x="172" y="423"/>
      <point x="197" y="423" type="curve"/>
      <point x="228" y="423"/>
      <point x="259" y="407"/>
      <point x="277" y="393" type="curve"/>
      <point x="342" y="493"/>
      <point x="277" y="393"/>
      <point x="342" y="493" type="curve"/>
      <point x="311" y="515"/>
      <point x="249" y="533"/>
      <point x="199" y="533" type="curve"/>
      <point x="98" y="533"/>
      <point x="33" y="484"/>
      <point x="33" y="388" type="curve"/>
      <point x="33" y="297"/>
      <point x="89" y="253"/>
      <point x="178" y="222" type="curve"/>
      <point x="217" y="208"/>
      <point x="254" y="188"/>
      <point x="254" y="154" type="curve"/>
      <point x="254" y="131"/>
      <point x="239" y="110"/>
      <point x="212" y="110" type="curve"/>
      <point x="170" y="110"/>
      <point x="140" y="124"/>
      <point x="101" y="146" type="curve"/>
    </contour>
    <contour>
      <point x="230" y="493"/>
      <point x="342" y="493"/>
      <point x="230" y="493" type="curve"/>
      <point x="230" y="493"/>
      <point x="230" y="493"/>
      <point x="230" y="493" type="curve"/>
      <point x="342" y="493"/>
      <point x="230" y="493"/>
      <point x="342" y="493" type="curve"/>
      <point x="342" y="493"/>
      <point x="342" y="493"/>
      <point x="342" y="493" type="curve"/>
    </contour>
    <contour>
      <point x="142" y="47"/>
      <point x="30" y="47"/>
      <point x="142" y="47" type="curve"/>
      <point x="142" y="47"/>
      <point x="142" y="47"/>
      <point x="142" y="47" type="curve"/>
      <point x="30" y="47"/>
      <point x="142" y="47"/>
      <point x="30" y="47" type="curve"/>
      <point x="30" y="47"/>
      <point x="30" y="47"/>
      <point x="30" y="47" type="curve"/>
    </contour>
  </outline>
</glyph>
<glyph name="t" format="1">
  <advance width="368"/>
  <unicode hex="0074"/>
  <outline>
    <contour>
      <point x="30" y="421"/>
      <point x="30" y="532"/>
      <point x="30" y="421" type="curve"/>
      <point x="30" y="421"/>
      <point x="323" y="421"/>
      <point x="323" y="421" type="curve"/>
      <point x="323" y="532"/>
      <point x="323" y="421"/>
      <point x="323" y="532" type="curve"/>
      <point x="323" y="532"/>
      <point x="30" y="532"/>
      <point x="30" y="532" type="curve"/>
    </contour>
    <contour>
      <point x="279" y="125"/>
      <point x="338" y="31"/>
      <point x="279" y="125" type="curve"/>
      <point x="265" y="116"/>
      <point x="254" y="110"/>
      <point x="237" y="110" type="curve"/>
      <point x="210" y="110"/>
      <point x="217" y="139"/>
      <point x="217" y="175" type="curve"/>
      <point x="217" y="175"/>
      <point x="217" y="651"/>
      <point x="217" y="651" type="curve"/>
      <point x="74" y="580"/>
      <point x="217" y="651"/>
      <point x="74" y="580" type="curve"/>
      <point x="74" y="580"/>
      <point x="74" y="170"/>
      <point x="74" y="170" type="curve"/>
      <point x="74" y="60"/>
      <point x="123" y="-6"/>
      <point x="224" y="-6" type="curve"/>
      <point x="269" y="-6"/>
      <point x="299" y="8"/>
      <point x="338" y="31" type="curve"/>
    </contour>
  </outline>
</glyph>
<glyph name="u" format="1">
  <advance width="477"/>
  <unicode hex="0075"/>
  <outline>
    <contour>
      <point x="375" y="533"/>
      <point x="375" y="423"/>
      <point x="375" y="533" type="curve"/>
      <point x="375" y="533"/>
      <point x="375" y="533"/>
      <point x="375" y="533" type="curve"/>
      <point x="375" y="423"/>
      <point x="375" y="533"/>
      <point x="375" y="423" type="curve"/>
      <point x="375" y="423"/>
      <point x="375" y="423"/>
      <point x="375" y="423" type="curve"/>
    </contour>
    <contour>
      <point x="101" y="533"/>
      <point x="101" y="423"/>
      <point x="101" y="533" type="curve"/>
      <point x="101" y="533"/>
      <point x="101" y="533"/>
      <point x="101" y="533" type="curve"/>
      <point x="101" y="423"/>
      <point x="101" y="533"/>
      <point x="101" y="423" type="curve"/>
      <point x="101" y="423"/>
      <point x="101" y="423"/>
      <point x="101" y="423" type="curve"/>
    </contour>
    <contour>
      <point x="375" y="0"/>
      <point x="375" y="110"/>
      <point x="375" y="0" type="curve"/>
      <point x="375" y="0"/>
      <point x="375" y="0"/>
      <point x="375" y="0" type="curve"/>
      <point x="375" y="110"/>
      <point x="375" y="0"/>
      <point x="375" y="110" type="curve"/>
      <point x="375" y="110"/>
      <point x="375" y="110"/>
      <point x="375" y="110" type="curve"/>
    </contour>
    <contour>
      <point x="447" y="0"/>
      <point x="304" y="0"/>
      <point x="447" y="0" type="curve"/>
      <point x="447" y="178"/>
      <point x="447" y="355"/>
      <point x="447" y="533" type="curve"/>
      <point x="304" y="533"/>
      <point x="447" y="533"/>
      <point x="304" y="533" type="curve"/>
      <point x="304" y="355"/>
      <point x="304" y="178"/>
      <point x="304" y="0" type="curve"/>
    </contour>
    <contour>
      <point x="327" y="214"/>
      <point x="382" y="164"/>
      <point x="327" y="214" type="curve"/>
      <point x="308" y="169"/>
      <point x="282" y="111"/>
      <point x="232" y="111" type="curve"/>
      <point x="179" y="111"/>
      <point x="173" y="159"/>
      <point x="173" y="219" type="curve"/>
      <point x="173" y="324"/>
      <point x="173" y="429"/>
      <point x="173" y="534" type="curve"/>
      <point x="30" y="534"/>
      <point x="173" y="534"/>
      <point x="30" y="534" type="curve"/>
      <point x="30" y="427"/>
      <point x="30" y="320"/>
      <point x="30" y="214" type="curve"/>
      <point x="30" y="87"/>
      <point x="69" y="1"/>
      <point x="183" y="1" type="curve"/>
      <point x="276" y="1"/>
      <point x="350" y="81"/>
      <point x="382" y="164" type="curve"/>
    </contour>
  </outline>
</glyph>
<glyph name="w" format="1">
  <advance width="753"/>
  <unicode hex="0077"/>
  <outline>
    <contour>
      <point x="381" y="533"/>
      <point x="381" y="423"/>
      <point x="381" y="533" type="curve"/>
      <point x="381" y="533"/>
      <point x="381" y="533"/>
      <point x="381" y="533" type="curve"/>
      <point x="381" y="423"/>
      <point x="381" y="533"/>
      <point x="381" y="423" type="curve"/>
      <point x="381" y="423"/>
      <point x="381" y="423"/>
      <point x="381" y="423" type="curve"/>
    </contour>
    <contour>
      <point x="381" y="423"/>
      <point x="381" y="533"/>
      <point x="381" y="423" type="curve"/>
      <point x="381" y="423"/>
      <point x="381" y="423"/>
      <point x="381" y="423" type="curve"/>
      <point x="381" y="533"/>
      <point x="381" y="423"/>
      <point x="381" y="533" type="curve"/>
      <point x="381" y="533"/>
      <point x="381" y="533"/>
      <point x="381" y="533" type="curve"/>
    </contour>
    <contour>
      <point x="652" y="423"/>
      <point x="652" y="533"/>
      <point x="652" y="423" type="curve"/>
      <point x="652" y="423"/>
      <point x="652" y="423"/>
      <point x="652" y="423" type="curve"/>
      <point x="652" y="533"/>
      <point x="652" y="423"/>
      <point x="652" y="533" type="curve"/>
      <point x="652" y="533"/>
      <point x="652" y="533"/>
      <point x="652" y="533" type="curve"/>
    </contour>
    <contour>
      <point x="652" y="533"/>
      <point x="652" y="423"/>
      <point x="652" y="533" type="curve"/>
      <point x="652" y="533"/>
      <point x="652" y="533"/>
      <point x="652" y="533" type="curve"/>
      <point x="652" y="423"/>
      <point x="652" y="533"/>
      <point x="652" y="423" type="curve"/>
      <point x="652" y="423"/>
      <point x="652" y="423"/>
      <point x="652" y="423" type="curve"/>
    </contour>
    <contour>
      <point x="101" y="533"/>
      <point x="101" y="423"/>
      <point x="101" y="533" type="curve"/>
      <point x="101" y="533"/>
      <point x="101" y="533"/>
      <point x="101" y="533" type="curve"/>
      <point x="101" y="423"/>
      <point x="101" y="533"/>
      <point x="101" y="423" type="curve"/>
      <point x="101" y="423"/>
      <point x="101" y="423"/>
      <point x="101" y="423" type="curve"/>
    </contour>
    <contour>
      <point x="101" y="423"/>
      <point x="101" y="533"/>
      <point x="101" y="423" type="curve"/>
      <point x="101" y="423"/>
      <point x="101" y="423"/>
      <point x="101" y="423" type="curve"/>
      <point x="101" y="533"/>
      <point x="101" y="423"/>
      <point x="101" y="533" type="curve"/>
      <point x="101" y="533"/>
      <point x="101" y="533"/>
      <point x="101" y="533" type="curve"/>
    </contour>
    <contour>
      <point x="288" y="0"/>
      <point x="167" y="0"/>
      <point x="288" y="0" type="curve"/>
      <point x="339" y="178"/>
      <point x="390" y="355"/>
      <point x="440" y="533" type="curve"/>
      <point x="317" y="533"/>
      <point x="440" y="533"/>
      <point x="317" y="533" type="curve"/>
      <point x="267" y="355"/>
      <point x="217" y="178"/>
      <point x="167" y="0" type="curve"/>
    </contour>
    <contour>
      <point x="600" y="533"/>
      <point x="723" y="533"/>
      <point x="600" y="533" type="curve"/>
      <point x="553" y="355"/>
      <point x="507" y="178"/>
      <point x="460" y="0" type="curve"/>
      <point x="581" y="0"/>
      <point x="460" y="0"/>
      <point x="581" y="0" type="curve"/>
      <point x="628" y="178"/>
      <point x="676" y="355"/>
      <point x="723" y="533" type="curve"/>
    </contour>
    <contour>
      <point x="322" y="533"/>
      <point x="444" y="533"/>
      <point x="322" y="533" type="curve"/>
      <point x="368" y="355"/>
      <point x="413" y="178"/>
      <point x="459" y="0" type="curve"/>
      <point x="580" y="0"/>
      <point x="459" y="0"/>
      <point x="580" y="0" type="curve"/>
      <point x="535" y="178"/>
      <point x="489" y="355"/>
      <point x="444" y="533" type="curve"/>
    </contour>
    <contour>
      <point x="30" y="533"/>
      <point x="152" y="533"/>
      <point x="30" y="533" type="curve"/>
      <point x="76" y="355"/>
      <point x="121" y="178"/>
      <point x="167" y="0" type="curve"/>
      <point x="287" y="0"/>
      <point x="167" y="0"/>
      <point x="287" y="0" type="curve"/>
      <point x="242" y="178"/>
      <point x="197" y="355"/>
      <point x="152" y="533" type="curve"/>
    </contour>
  </outline>
</glyph>
<glyph name="y" format="1">
  <advance width="528"/>
  <unicode hex="0079"/>
  <outline>
    <contour>
      <point x="130" y="-188"/>
      <point x="130" y="-299"/>
      <point x="130" y="-188" type="curve"/>
      <point x="130" y="-188"/>
      <point x="130" y="-188"/>
      <point x="130" y="-188" type="curve"/>
      <point x="130" y="-299"/>
      <point x="130" y="-188"/>
      <point x="130" y="-299" type="curve"/>
      <point x="130" y="-299"/>
      <point x="130" y="-299"/>
      <point x="130" y="-299" type="curve"/>
    </contour>
    <contour>
      <point x="112" y="534"/>
      <point x="112" y="424"/>
      <point x="112" y="534" type="curve"/>
      <point x="112" y="534"/>
      <point x="112" y="534"/>
      <point x="112" y="534" type="curve"/>
      <point x="112" y="424"/>
      <point x="112" y="534"/>
      <point x="112" y="424" type="curve"/>
      <point x="112" y="424"/>
      <point x="112" y="424"/>
      <point x="112" y="424" type="curve"/>
    </contour>
    <contour>
      <point x="112" y="424"/>
      <point x="112" y="534"/>
      <point x="112" y="424" type="curve"/>
      <point x="112" y="424"/>
      <point x="112" y="424"/>
      <point x="112" y="424" type="curve"/>
      <point x="112" y="534"/>
      <point x="112" y="424"/>
      <point x="112" y="534" type="curve"/>
      <point x="112" y="534"/>
      <point x="112" y="534"/>
      <point x="112" y="534" type="curve"/>
    </contour>
    <contour>
      <point x="416" y="534"/>
      <point x="416" y="424"/>
      <point x="416" y="534" type="curve"/>
      <point x="416" y="534"/>
      <point x="416" y="534"/>
      <point x="416" y="534" type="curve"/>
      <point x="416" y="424"/>
      <point x="416" y="534"/>
      <point x="416" y="424" type="curve"/>
      <point x="416" y="424"/>
      <point x="416" y="424"/>
      <point x="416" y="424" type="curve"/>
    </contour>
    <contour>
      <point x="416" y="424"/>
      <point x="416" y="534"/>
      <point x="416" y="424" type="curve"/>
      <point x="416" y="424"/>
      <point x="416" y="424"/>
      <point x="416" y="424" type="curve"/>
      <point x="416" y="534"/>
      <point x="416" y="424"/>
      <point x="416" y="534" type="curve"/>
      <point x="416" y="534"/>
      <point x="416" y="534"/>
      <point x="416" y="534" type="curve"/>
    </contour>
    <contour>
      <point x="329" y="77"/>
      <point x="187" y="77"/>
      <point x="329" y="77" type="curve"/>
      <point x="278" y="229"/>
      <point x="227" y="381"/>
      <point x="176" y="533" type="curve"/>
      <point x="30" y="533"/>
      <point x="176" y="533"/>
      <point x="30" y="533" type="curve"/>
      <point x="82" y="381"/>
      <point x="135" y="229"/>
      <point x="187" y="77" type="curve"/>
    </contour>
    <contour>
      <point x="193" y="-300"/>
      <point x="47" y="-300"/>
      <point x="193" y="-300" type="curve"/>
      <point x="295" y="-22"/>
      <point x="396" y="255"/>
      <point x="498" y="533" type="curve"/>
      <point x="353" y="533"/>
      <point x="498" y="533"/>
      <point x="353" y="533" type="curve"/>
      <point x="251" y="255"/>
      <point x="149" y="-22"/>
      <point x="47" y="-300" type="curve"/>
    </contour>
  </outline>
</glyph>
<glyph name="uni0904" format="1">
  <advance width="678"/>
  <unicode hex="0904"/>
  <outline>
    <contour>
      <point x="535" y="0"/>
      <point x="535" y="110"/>
      <point x="535" y="0" type="curve"/>
      <point x="535" y="0"/>
      <point x="535" y="0"/>
      <point x="535" y="0" type="curve"/>
      <point x="535" y="110"/>
      <point x="535" y="0"/>
      <point x="535" y="110" type="curve"/>
      <point x="535" y="110"/>
      <point x="535" y="110"/>
      <point x="535" y="110" type="curve"/>
    </contour>
    <contour>
      <point x="535" y="110"/>
      <point x="535" y="0"/>
      <point x="535" y="110" type="curve"/>
      <point x="535" y="110"/>
      <point x="535" y="110"/>
      <point x="535" y="110" type="curve"/>
      <point x="535" y="0"/>
      <point x="535" y="110"/>
      <point x="535" y="0" type="curve"/>
      <point x="535" y="0"/>
      <point x="535" y="0"/>
      <point x="535" y="0" type="curve"/>
    </contour>
    <contour>
      <point x="142" y="123"/>
      <point x="30" y="123"/>
      <point x="142" y="123" type="curve"/>
      <point x="142" y="123"/>
      <point x="142" y="123"/>
      <point x="142" y="123" type="curve"/>
      <point x="30" y="123"/>
      <point x="142" y="123"/>
      <point x="30" y="123" type="curve"/>
      <point x="30" y="123"/>
      <point x="30" y="123"/>
      <point x="30" y="123" type="curve"/>
    </contour>
    <contour>
      <point x="606" y="660"/>
      <point x="463" y="660"/>
      <point x="606" y="660" type="curve"/>
      <point x="606" y="791"/>
      <point x="518" y="849"/>
      <point x="381" y="868" type="curve"/>
      <point x="316" y="877"/>
      <point x="268" y="914"/>
      <point x="268" y="953" type="curve"/>
      <point x="131" y="953"/>
      <point x="268" y="953"/>
      <point x="131" y="953" type="curve"/>
      <point x="131" y="827"/>
      <point x="219" y="781"/>
      <point x="355" y="763" type="curve"/>
      <point x="420" y="754"/>
      <point x="463" y="723"/>
      <point x="463" y="660" type="curve"/>
    </contour>
    <contour>
      <point x="30" y="123"/>
      <point x="128" y="194"/>
      <point x="30" y="123" type="curve"/>
      <point x="72" y="64"/>
      <point x="138" y="28"/>
      <point x="210" y="28" type="curve"/>
      <point x="350" y="22"/>
      <point x="444" y="105"/>
      <point x="442" y="243" type="curve"/>
      <point x="440" y="377"/>
      <point x="323" y="429"/>
      <point x="174" y="429" type="curve"/>
      <point x="174" y="335"/>
      <point x="174" y="429"/>
      <point x="174" y="335" type="curve"/>
      <point x="250" y="335"/>
      <point x="304" y="298"/>
      <point x="305" y="226" type="curve"/>
      <point x="306" y="173"/>
      <point x="275" y="136"/>
      <point x="223" y="138" type="curve"/>
      <point x="183" y="138"/>
      <point x="152" y="163"/>
      <point x="128" y="194" type="curve"/>
    </contour>
    <contour>
      <point x="606" y="0"/>
      <point x="463" y="0"/>
      <point x="606" y="0" type="curve"/>
      <point x="606" y="237"/>
      <point x="606" y="473"/>
      <point x="606" y="710" type="curve"/>
      <point x="463" y="710"/>
      <point x="606" y="710"/>
      <point x="463" y="710" type="curve"/>
      <point x="463" y="473"/>
      <point x="463" y="237"/>
      <point x="463" y="0" type="curve"/>
    </contour>
    <contour>
      <point x="141" y="566"/>
      <point x="57" y="660"/>
      <point x="141" y="566" type="curve"/>
      <point x="167" y="588"/>
      <point x="182" y="612"/>
      <point x="215" y="612" type="curve"/>
      <point x="260" y="612"/>
      <point x="280" y="572"/>
      <point x="279" y="522" type="curve"/>
      <point x="279" y="465"/>
      <point x="235" y="435"/>
      <point x="174" y="435" type="curve"/>
      <point x="174" y="336"/>
      <point x="174" y="435"/>
      <point x="174" y="336" type="curve"/>
      <point x="317" y="336"/>
      <point x="422" y="400"/>
      <point x="422" y="533" type="curve"/>
      <point x="422" y="648"/>
      <point x="349" y="722"/>
      <point x="235" y="722" type="curve"/>
      <point x="163" y="722"/>
      <point x="111" y="707"/>
      <point x="57" y="660" type="curve"/>
    </contour>
    <contour>
      <point x="420" y="612"/>
      <point x="420" y="722"/>
      <point x="420" y="612" type="curve"/>
      <point x="496" y="612"/>
      <point x="595" y="612"/>
      <point x="671" y="612" type="curve"/>
      <point x="671" y="722"/>
      <point x="671" y="612"/>
      <point x="671" y="722" type="curve"/>
      <point x="595" y="722"/>
      <point x="496" y="722"/>
      <point x="420" y="722" type="curve"/>
    </contour>
    <contour>
      <point x="516" y="450"/>
      <point x="548" y="361"/>
      <point x="516" y="450" type="curve"/>
      <point x="423" y="398"/>
      <point x="342" y="395"/>
      <point x="238" y="415" type="curve"/>
      <point x="206" y="349"/>
      <point x="238" y="415"/>
      <point x="206" y="349" type="curve"/>
      <point x="336" y="321"/>
      <point x="437" y="293"/>
      <point x="548" y="361" type="curve"/>
    </contour>
  </outline>
</glyph>
<glyph name="adeva" format="1">
  <advance width="678"/>
  <unicode hex="0905"/>
  <outline>
    <contour>
      <point x="510" y="450"/>
      <point x="555" y="361"/>
      <point x="510" y="450" type="curve"/>
      <point x="419" y="400"/>
      <point x="340" y="395"/>
      <point x="238" y="415" type="curve"/>
      <point x="206" y="349"/>
      <point x="238" y="415"/>
      <point x="206" y="349" type="curve"/>
      <point x="338" y="321"/>
      <point x="432" y="290"/>
      <point x="555" y="361" type="curve"/>
    </contour>
    <contour>
      <point x="141" y="566"/>
      <point x="57" y="660"/>
      <point x="141" y="566" type="curve"/>
      <point x="167" y="588"/>
      <point x="182" y="612"/>
      <point x="215" y="612" type="curve"/>
      <point x="260" y="612"/>
      <point x="280" y="572"/>
      <point x="279" y="522" type="curve"/>
      <point x="279" y="465"/>
      <point x="235" y="435"/>
      <point x="174" y="435" type="curve"/>
      <point x="174" y="336"/>
      <point x="174" y="435"/>
      <point x="174" y="336" type="curve"/>
      <point x="317" y="336"/>
      <point x="422" y="400"/>
      <point x="422" y="533" type="curve"/>
      <point x="422" y="648"/>
      <point x="349" y="722"/>
      <point x="235" y="722" type="curve"/>
      <point x="163" y="722"/>
      <point x="111" y="707"/>
      <point x="57" y="660" type="curve"/>
    </contour>
    <contour>
      <point x="142" y="123"/>
      <point x="30" y="123"/>
      <point x="142" y="123" type="curve"/>
      <point x="142" y="123"/>
      <point x="142" y="123"/>
      <point x="142" y="123" type="curve"/>
      <point x="30" y="123"/>
      <point x="142" y="123"/>
      <point x="30" y="123" type="curve"/>
      <point x="30" y="123"/>
      <point x="30" y="123"/>
      <point x="30" y="123" type="curve"/>
    </contour>
    <contour>
      <point x="30" y="123"/>
      <point x="128" y="194"/>
      <point x="30" y="123" type="curve"/>
      <point x="72" y="64"/>
      <point x="138" y="28"/>
      <point x="210" y="28" type="curve"/>
      <point x="350" y="22"/>
      <point x="447" y="102"/>
      <point x="445" y="239" type="curve"/>
      <point x="444" y="375"/>
      <point x="325" y="429"/>
      <point x="174" y="429" type="curve"/>
      <point x="174" y="335"/>
      <point x="174" y="429"/>
      <point x="174" y="335" type="curve"/>
      <point x="249" y="335"/>
      <point x="301" y="299"/>
      <point x="302" y="228" type="curve"/>
      <point x="303" y="174"/>
      <point x="274" y="136"/>
      <point x="223" y="138" type="curve"/>
      <point x="183" y="138"/>
      <point x="152" y="163"/>
      <point x="128" y="194" type="curve"/>
    </contour>
    <contour>
      <point x="535" y="0"/>
      <point x="535" y="110"/>
      <point x="535" y="0" type="curve"/>
      <point x="535" y="0"/>
      <point x="535" y="0"/>
      <point x="535" y="0" type="curve"/>
      <point x="535" y="110"/>
      <point x="535" y="0"/>
      <point x="535" y="110" type="curve"/>
      <point x="535" y="110"/>
      <point x="535" y="110"/>
      <point x="535" y="110" type="curve"/>
    </contour>
    <contour>
      <point x="535" y="110"/>
      <point x="535" y="0"/>
      <point x="535" y="110" type="curve"/>
      <point x="535" y="110"/>
      <point x="535" y="110"/>
      <point x="535" y="110" type="curve"/>
      <point x="535" y="0"/>
      <point x="535" y="110"/>
      <point x="535" y="0" type="curve"/>
      <point x="535" y="0"/>
      <point x="535" y="0"/>
      <point x="535" y="0" type="curve"/>
    </contour>
    <contour>
      <point x="606" y="0"/>
      <point x="463" y="0"/>
      <point x="606" y="0" type="curve"/>
      <point x="606" y="237"/>
      <point x="606" y="473"/>
      <point x="606" y="710" type="curve"/>
      <point x="463" y="710"/>
      <point x="606" y="710"/>
      <point x="463" y="710" type="curve"/>
      <point x="463" y="473"/>
      <point x="463" y="237"/>
      <point x="463" y="0" type="curve"/>
    </contour>
    <contour>
      <point x="420" y="605"/>
      <point x="420" y="727"/>
      <point x="420" y="605" type="curve"/>
      <point x="496" y="605"/>
      <point x="598" y="605"/>
      <point x="674" y="605" type="curve"/>
      <point x="674" y="727"/>
      <point x="674" y="605"/>
      <point x="674" y="727" type="curve"/>
      <point x="598" y="727"/>
      <point x="496" y="727"/>
      <point x="420" y="727" type="curve"/>
    </contour>
  </outline>
</glyph>
<glyph name="ideva" format="1">
  <advance width="517"/>
  <unicode hex="0907"/>
  <outline>
    <contour>
      <point x="-24" y="612"/>
      <point x="-24" y="722"/>
      <point x="-24" y="612" type="curve"/>
      <point x="122" y="612"/>
      <point x="399" y="612"/>
      <point x="545" y="612" type="curve"/>
      <point x="545" y="722"/>
      <point x="545" y="612"/>
      <point x="545" y="722" type="curve"/>
      <point x="399" y="722"/>
      <point x="122" y="722"/>
      <point x="-24" y="722" type="curve"/>
    </contour>
    <contour>
      <point x="293" y="666"/>
      <point x="436" y="666"/>
      <point x="293" y="666" type="curve"/>
      <point x="293" y="612"/>
      <point x="293" y="558"/>
      <point x="293" y="504" type="curve"/>
      <point x="304" y="516"/>
      <point x="317" y="525"/>
      <point x="329" y="537" type="curve"/>
      <point x="341" y="550"/>
      <point x="359" y="554"/>
      <point x="371" y="566" type="curve"/>
      <point x="319" y="566"/>
      <point x="267" y="566"/>
      <point x="216" y="566" type="curve"/>
      <point x="104" y="566"/>
      <point x="30" y="516"/>
      <point x="30" y="410" type="curve"/>
      <point x="30" y="323"/>
      <point x="81" y="281"/>
      <point x="151" y="228" type="curve"/>
      <point x="190" y="349"/>
      <point x="151" y="228"/>
      <point x="190" y="349" type="curve"/>
      <point x="171" y="366"/>
      <point x="166" y="385"/>
      <point x="166" y="410" type="curve"/>
      <point x="166" y="439"/>
      <point x="186" y="456"/>
      <point x="216" y="456" type="curve"/>
      <point x="267" y="456"/>
      <point x="319" y="456"/>
      <point x="371" y="456" type="curve"/>
      <point x="436" y="456"/>
      <point x="371" y="456"/>
      <point x="436" y="456" type="curve"/>
      <point x="436" y="504"/>
      <point x="436" y="456"/>
      <point x="436" y="504" type="curve"/>
      <point x="436" y="558"/>
      <point x="436" y="612"/>
      <point x="436" y="666" type="curve"/>
    </contour>
    <contour>
      <point x="151" y="228"/>
      <point x="190" y="349"/>
      <point x="151" y="228" type="curve"/>
      <point x="204" y="257"/>
      <point x="240" y="270"/>
      <point x="300" y="270" type="curve"/>
      <point x="330" y="270"/>
      <point x="345" y="250"/>
      <point x="345" y="218" type="curve"/>
      <point x="345" y="165"/>
      <point x="308" y="139"/>
      <point x="252" y="139" type="curve"/>
      <point x="211" y="139"/>
      <point x="195" y="168"/>
      <point x="186" y="209" type="curve"/>
      <point x="69" y="132"/>
      <point x="186" y="209"/>
      <point x="69" y="132" type="curve"/>
      <point x="86" y="44"/>
      <point x="156" y="23"/>
      <point x="252" y="23" type="curve"/>
      <point x="387" y="23"/>
      <point x="475" y="89"/>
      <point x="475" y="218" type="curve"/>
      <point x="474" y="321"/>
      <point x="415" y="381"/>
      <point x="313" y="381" type="curve"/>
      <point x="264" y="381"/>
      <point x="233" y="373"/>
      <point x="190" y="349" type="curve"/>
    </contour>
    <contour>
      <point x="69" y="132"/>
      <point x="186" y="209"/>
      <point x="69" y="132" type="curve"/>
      <point x="126" y="52"/>
      <point x="179" y="-31"/>
      <point x="236" y="-111" type="curve"/>
      <point x="366" y="-28"/>
      <point x="236" y="-111"/>
      <point x="366" y="-28" type="curve"/>
      <point x="308" y="52"/>
      <point x="244" y="129"/>
      <point x="186" y="209" type="curve"/>
    </contour>
  </outline>
</glyph>
<glyph name="edeva" format="1">
  <advance width="522"/>
  <unicode hex="090F"/>
  <outline>
    <contour>
      <point x="343" y="225"/>
      <point x="258" y="324"/>
      <point x="343" y="225" type="curve"/>
      <point x="436" y="294"/>
      <point x="476" y="380"/>
      <point x="476" y="497" type="curve"/>
      <point x="476" y="553"/>
      <point x="476" y="610"/>
      <point x="476" y="666" type="curve"/>
      <point x="333" y="666"/>
      <point x="476" y="666"/>
      <point x="333" y="666" type="curve"/>
      <point x="333" y="604"/>
      <point x="333" y="542"/>
      <point x="333" y="480" type="curve"/>
      <point x="333" y="414"/>
      <point x="312" y="364"/>
      <point x="258" y="324" type="curve"/>
    </contour>
    <contour>
      <point x="-22" y="612"/>
      <point x="-22" y="722"/>
      <point x="-22" y="612" type="curve"/>
      <point x="132" y="612"/>
      <point x="385" y="612"/>
      <point x="539" y="612" type="curve"/>
      <point x="539" y="722"/>
      <point x="539" y="612"/>
      <point x="539" y="722" type="curve"/>
      <point x="385" y="722"/>
      <point x="132" y="722"/>
      <point x="-22" y="722" type="curve"/>
    </contour>
    <contour>
      <point x="390" y="100"/>
      <point x="344" y="-10"/>
      <point x="390" y="100" type="curve"/>
      <point x="252" y="166"/>
      <point x="192" y="280"/>
      <point x="192" y="434" type="curve"/>
      <point x="192" y="511"/>
      <point x="192" y="589"/>
      <point x="192" y="666" type="curve"/>
      <point x="49" y="666"/>
      <point x="192" y="666"/>
      <point x="49" y="666" type="curve"/>
      <point x="49" y="581"/>
      <point x="49" y="496"/>
      <point x="49" y="412" type="curve"/>
      <point x="49" y="209"/>
      <point x="158" y="75"/>
      <point x="344" y="-10" type="curve"/>
    </contour>
  </outline>
</glyph>
<glyph name="khadeva" format="1">
  <advance width="778"/>
  <unicode hex="0916"/>
  <outline>
    <contour>
      <point x="621" y="0"/>
      <point x="621" y="110"/>
      <point x="621" y="0" type="curve"/>
      <point x="621" y="0"/>
      <point x="621" y="0"/>
      <point x="621" y="0" type="curve"/>
      <point x="621" y="110"/>
      <point x="621" y="0"/>
      <point x="621" y="110" type="curve"/>
      <point x="621" y="110"/>
      <point x="621" y="110"/>
      <point x="621" y="110" type="curve"/>
    </contour>
    <contour>
      <point x="549" y="710"/>
      <point x="692" y="710"/>
      <point x="549" y="710" type="curve"/>
      <point x="549" y="473"/>
      <point x="549" y="237"/>
      <point x="549" y="0" type="curve"/>
      <point x="692" y="0"/>
      <point x="549" y="0"/>
      <point x="692" y="0" type="curve"/>
      <point x="692" y="237"/>
      <point x="692" y="473"/>
      <point x="692" y="710" type="curve"/>
    </contour>
    <contour>
      <point x="-14" y="612"/>
      <point x="-14" y="722"/>
      <point x="-14" y="612" type="curve"/>
      <point x="225" y="612"/>
      <point x="514" y="612"/>
      <point x="753" y="612" type="curve"/>
      <point x="753" y="722"/>
      <point x="753" y="612"/>
      <point x="753" y="722" type="curve"/>
      <point x="514" y="722"/>
      <point x="225" y="722"/>
      <point x="-14" y="722" type="curve"/>
    </contour>
    <contour>
      <point x="638" y="475"/>
      <point x="575" y="425"/>
      <point x="638" y="475" type="curve"/>
      <point x="607" y="527"/>
      <point x="573" y="575"/>
      <point x="514" y="575" type="curve"/>
      <point x="410" y="575"/>
      <point x="353" y="506"/>
      <point x="353" y="397" type="curve"/>
      <point x="353" y="292"/>
      <point x="414" y="224"/>
      <point x="514" y="224" type="curve"/>
      <point x="575" y="224"/>
      <point x="610" y="273"/>
      <point x="640" y="326" type="curve"/>
      <point x="572" y="372"/>
      <point x="640" y="326"/>
      <point x="572" y="372" type="curve"/>
      <point x="558" y="351"/>
      <point x="540" y="334"/>
      <point x="514" y="334" type="curve"/>
      <point x="487" y="334"/>
      <point x="488" y="365"/>
      <point x="488" y="397" type="curve"/>
      <point x="488" y="431"/>
      <point x="484" y="464"/>
      <point x="514" y="464" type="curve"/>
      <point x="541" y="464"/>
      <point x="559" y="448"/>
      <point x="575" y="425" type="curve"/>
    </contour>
    <contour>
      <point x="592" y="219"/>
      <point x="651" y="136"/>
      <point x="592" y="219" type="curve"/>
      <point x="530" y="175"/>
      <point x="473" y="149"/>
      <point x="394" y="149" type="curve"/>
      <point x="227" y="149"/>
      <point x="152" y="299"/>
      <point x="152" y="484" type="curve"/>
      <point x="35" y="467"/>
      <point x="152" y="484"/>
      <point x="35" y="467" type="curve"/>
      <point x="35" y="224"/>
      <point x="160" y="38"/>
      <point x="388" y="38" type="curve"/>
      <point x="494" y="38"/>
      <point x="570" y="78"/>
      <point x="651" y="136" type="curve"/>
    </contour>
    <contour>
      <point x="172" y="638"/>
      <point x="252" y="701"/>
      <point x="172" y="638" type="curve"/>
      <point x="209" y="594"/>
      <point x="226" y="549"/>
      <point x="226" y="492" type="curve"/>
      <point x="226" y="457"/>
      <point x="229" y="423"/>
      <point x="199" y="423" type="curve"/>
      <point x="169" y="423"/>
      <point x="159" y="452"/>
      <point x="152" y="484" type="curve"/>
      <point x="35" y="467"/>
      <point x="152" y="484"/>
      <point x="35" y="467" type="curve"/>
      <point x="55" y="381"/>
      <point x="106" y="318"/>
      <point x="193" y="318" type="curve"/>
      <point x="287" y="318"/>
      <point x="341" y="396"/>
      <point x="341" y="496" type="curve"/>
      <point x="341" y="578"/>
      <point x="306" y="638"/>
      <point x="252" y="701" type="curve"/>
    </contour>
  </outline>
</glyph>
<glyph name="ddhadeva" format="1">
  <advance width="608"/>
  <unicode hex="0922"/>
  <outline>
    <contour>
      <point x="-34" y="612"/>
      <point x="-34" y="722"/>
      <point x="-34" y="612" type="curve"/>
      <point x="130" y="612"/>
      <point x="432" y="612"/>
      <point x="596" y="612" type="curve"/>
      <point x="596" y="722"/>
      <point x="596" y="612"/>
      <point x="596" y="722" type="curve"/>
      <point x="432" y="722"/>
      <point x="130" y="722"/>
      <point x="-34" y="722" type="curve"/>
    </contour>
    <contour>
      <point x="321" y="666"/>
      <point x="464" y="666"/>
      <point x="321" y="666" type="curve"/>
      <point x="321" y="612"/>
      <point x="321" y="558"/>
      <point x="321" y="504" type="curve"/>
      <point x="332" y="514"/>
      <point x="346" y="521"/>
      <point x="357" y="532" type="curve"/>
      <point x="369" y="546"/>
      <point x="388" y="553"/>
      <point x="400" y="567" type="curve"/>
      <point x="372" y="567"/>
      <point x="344" y="567"/>
      <point x="317" y="567" type="curve"/>
      <point x="145" y="567"/>
      <point x="30" y="455"/>
      <point x="30" y="283" type="curve"/>
      <point x="30" y="116"/>
      <point x="131" y="0"/>
      <point x="293" y="0" type="curve"/>
      <point x="431" y="0"/>
      <point x="539" y="68"/>
      <point x="539" y="195" type="curve"/>
      <point x="539" y="300"/>
      <point x="473" y="368"/>
      <point x="370" y="368" type="curve"/>
      <point x="265" y="368"/>
      <point x="209" y="301"/>
      <point x="209" y="195" type="curve"/>
      <point x="209" y="92"/>
      <point x="300" y="54"/>
      <point x="358" y="36" type="curve"/>
      <point x="410" y="108"/>
      <point x="347" y="22"/>
      <point x="399" y="94" type="curve"/>
      <point x="363" y="118"/>
      <point x="332" y="153"/>
      <point x="332" y="195" type="curve"/>
      <point x="332" y="222"/>
      <point x="341" y="246"/>
      <point x="363" y="246" type="curve"/>
      <point x="388" y="246"/>
      <point x="396" y="224"/>
      <point x="396" y="195" type="curve"/>
      <point x="396" y="143"/>
      <point x="354" y="105"/>
      <point x="299" y="105" type="curve"/>
      <point x="208" y="105"/>
      <point x="167" y="188"/>
      <point x="167" y="291" type="curve"/>
      <point x="167" y="382"/>
      <point x="228" y="456"/>
      <point x="317" y="456" type="curve"/>
      <point x="344" y="456"/>
      <point x="372" y="456"/>
      <point x="400" y="456" type="curve"/>
      <point x="464" y="456"/>
      <point x="400" y="456"/>
      <point x="464" y="456" type="curve"/>
      <point x="464" y="504"/>
      <point x="464" y="456"/>
      <point x="464" y="504" type="curve"/>
      <point x="464" y="558"/>
      <point x="464" y="612"/>
      <point x="464" y="666" type="curve"/>
    </contour>
  </outline>
</glyph>
<glyph name="thadeva" format="1">
  <advance width="596"/>
  <unicode hex="0925"/>
  <outline>
    <contour>
      <point x="453" y="0"/>
      <point x="453" y="110"/>
      <point x="453" y="0" type="curve"/>
      <point x="453" y="0"/>
      <point x="453" y="0"/>
      <point x="453" y="0" type="curve"/>
      <point x="453" y="110"/>
      <point x="453" y="0"/>
      <point x="453" y="110" type="curve"/>
      <point x="453" y="110"/>
      <point x="453" y="110"/>
      <point x="453" y="110" type="curve"/>
    </contour>
    <contour>
      <point x="453" y="110"/>
      <point x="453" y="0"/>
      <point x="453" y="110" type="curve"/>
      <point x="453" y="110"/>
      <point x="453" y="110"/>
      <point x="453" y="110" type="curve"/>
      <point x="453" y="0"/>
      <point x="453" y="110"/>
      <point x="453" y="0" type="curve"/>
      <point x="453" y="0"/>
      <point x="453" y="0"/>
      <point x="453" y="0" type="curve"/>
    </contour>
    <contour>
      <point x="444" y="612"/>
      <point x="444" y="722"/>
      <point x="444" y="612" type="curve"/>
      <point x="485" y="612"/>
      <point x="543" y="612"/>
      <point x="584" y="612" type="curve"/>
      <point x="584" y="722"/>
      <point x="584" y="612"/>
      <point x="584" y="722" type="curve"/>
      <point x="543" y="722"/>
      <point x="485" y="722"/>
      <point x="444" y="722" type="curve"/>
    </contour>
    <contour>
      <point x="524" y="0"/>
      <point x="381" y="0"/>
      <point x="524" y="0" type="curve"/>
      <point x="524" y="241"/>
      <point x="524" y="481"/>
      <point x="524" y="722" type="curve"/>
      <point x="381" y="722"/>
      <point x="524" y="722"/>
      <point x="381" y="722" type="curve"/>
      <point x="381" y="481"/>
      <point x="381" y="241"/>
      <point x="381" y="0" type="curve"/>
    </contour>
    <contour>
      <point x="208" y="557"/>
      <point x="134" y="451"/>
      <point x="199" y="545" type="curve"/>
      <point x="186" y="555"/>
      <point x="181" y="568"/>
      <point x="181" y="584" type="curve"/>
      <point x="181" y="597"/>
      <point x="190" y="612"/>
      <point x="201" y="612" type="curve"/>
      <point x="228" y="612"/>
      <point x="227" y="582"/>
      <point x="227" y="552" type="curve"/>
      <point x="228" y="485"/>
      <point x="168" y="448"/>
      <point x="96" y="448" type="curve"/>
      <point x="30" y="448"/>
      <point x="96" y="448"/>
      <point x="30" y="448" type="curve"/>
      <point x="30" y="390"/>
      <point x="30" y="448"/>
      <point x="30" y="390" type="curve"/>
      <point x="30" y="242"/>
      <point x="119" y="132"/>
      <point x="260" y="132" type="curve"/>
      <point x="369" y="131"/>
      <point x="448" y="187"/>
      <point x="494" y="287" type="curve"/>
      <point x="401" y="326"/>
      <point x="494" y="287"/>
      <point x="401" y="326" type="curve"/>
      <point x="374" y="276"/>
      <point x="336" y="241"/>
      <point x="280" y="242" type="curve"/>
      <point x="205" y="243"/>
      <point x="166" y="309"/>
      <point x="166" y="390" type="curve"/>
      <point x="157" y="376"/>
      <point x="151" y="361"/>
      <point x="141" y="347" type="curve"/>
      <point x="130" y="332"/>
      <point x="107" y="336"/>
      <point x="96" y="321" type="curve"/>
      <point x="244" y="321"/>
      <point x="357" y="409"/>
      <point x="357" y="552" type="curve"/>
      <point x="357" y="650"/>
      <point x="301" y="722"/>
      <point x="208" y="722" type="curve"/>
      <point x="117" y="722"/>
      <point x="51" y="666"/>
      <point x="50" y="575" type="curve"/>
      <point x="50" y="518"/>
      <point x="88" y="478"/>
      <point x="143" y="463" type="curve"/>
    </contour>
  </outline>
</glyph>
<glyph name="uni0921094D092F" format="1">
  <advance width="938"/>
  <unicode hex="E002"/>
  <outline>
    <contour>
      <point x="819" y="0"/>
      <point x="819" y="110"/>
      <point x="819" y="0" type="curve"/>
      <point x="819" y="0"/>
      <point x="819" y="0"/>
      <point x="819" y="0" type="curve"/>
      <point x="819" y="110"/>
      <point x="819" y="0"/>
      <point x="819" y="110" type="curve"/>
      <point x="819" y="110"/>
      <point x="819" y="110"/>
      <point x="819" y="110" type="curve"/>
    </contour>
    <contour>
      <point x="889" y="0"/>
      <point x="746" y="0"/>
      <point x="889" y="0" type="curve"/>
      <point x="889" y="237"/>
      <point x="889" y="473"/>
      <point x="889" y="710" type="curve"/>
      <point x="746" y="710"/>
      <point x="889" y="710"/>
      <point x="746" y="710" type="curve"/>
      <point x="746" y="473"/>
      <point x="746" y="237"/>
      <point x="746" y="0" type="curve"/>
    </contour>
    <contour>
      <point x="434" y="493"/>
      <point x="291" y="493"/>
      <point x="434" y="493" type="curve"/>
      <point x="434" y="551"/>
      <point x="434" y="608"/>
      <point x="434" y="666" type="curve"/>
      <point x="291" y="666"/>
      <point x="434" y="666"/>
      <point x="291" y="666" type="curve"/>
      <point x="291" y="608"/>
      <point x="291" y="551"/>
      <point x="291" y="493" type="curve"/>
    </contour>
    <contour>
      <point x="363" y="557"/>
      <point x="363" y="447"/>
      <point x="363" y="557" type="curve"/>
      <point x="314" y="557"/>
      <point x="264" y="557"/>
      <point x="215" y="557" type="curve"/>
      <point x="100" y="557"/>
      <point x="30" y="511"/>
      <point x="30" y="403" type="curve"/>
      <point x="30" y="315"/>
      <point x="80" y="267"/>
      <point x="150" y="228" type="curve"/>
      <point x="189" y="349"/>
      <point x="150" y="228"/>
      <point x="189" y="349" type="curve"/>
      <point x="177" y="362"/>
      <point x="168" y="379"/>
      <point x="168" y="403" type="curve"/>
      <point x="168" y="422"/>
      <point x="184" y="447"/>
      <point x="221" y="447" type="curve"/>
      <point x="269" y="447"/>
      <point x="316" y="447"/>
      <point x="363" y="447" type="curve"/>
    </contour>
    <contour>
      <point x="42" y="103"/>
      <point x="133" y="186"/>
      <point x="42" y="103" type="curve"/>
      <point x="103" y="35"/>
      <point x="169" y="0"/>
      <point x="262" y="0" type="curve"/>
      <point x="384" y="0"/>
      <point x="464" y="75"/>
      <point x="464" y="195" type="curve"/>
      <point x="463" y="301"/>
      <point x="397" y="369"/>
      <point x="292" y="369" type="curve"/>
      <point x="253" y="369"/>
      <point x="225" y="363"/>
      <point x="189" y="349" type="curve"/>
      <point x="150" y="228"/>
      <point x="189" y="349"/>
      <point x="150" y="228" type="curve"/>
      <point x="194" y="245"/>
      <point x="226" y="259"/>
      <point x="272" y="259" type="curve"/>
      <point x="310" y="259"/>
      <point x="328" y="226"/>
      <point x="328" y="184" type="curve"/>
      <point x="328" y="143"/>
      <point x="313" y="110"/>
      <point x="275" y="110" type="curve"/>
      <point x="214" y="110"/>
      <point x="173" y="142"/>
      <point x="133" y="186" type="curve"/>
    </contour>
    <contour>
      <point x="350" y="447"/>
      <point x="350" y="557"/>
      <point x="350" y="447" type="curve"/>
      <point x="420" y="447"/>
      <point x="464" y="447"/>
      <point x="534" y="447" type="curve"/>
      <point x="570" y="447"/>
      <point x="598" y="439"/>
      <point x="598" y="408" type="curve"/>
      <point x="598" y="375"/>
      <point x="563" y="368"/>
      <point x="520" y="368" type="curve"/>
      <point x="456" y="368"/>
      <point x="520" y="368"/>
      <point x="456" y="368" type="curve"/>
      <point x="456" y="318"/>
      <point x="456" y="368"/>
      <point x="456" y="318" type="curve"/>
      <point x="458" y="167"/>
      <point x="530" y="68"/>
      <point x="675" y="68" type="curve"/>
      <point x="777" y="68"/>
      <point x="829" y="124"/>
      <point x="868" y="222" type="curve"/>
      <point x="770" y="271"/>
      <point x="868" y="222"/>
      <point x="770" y="271" type="curve"/>
      <point x="750" y="222"/>
      <point x="727" y="189"/>
      <point x="675" y="189" type="curve"/>
      <point x="612" y="189"/>
      <point x="599" y="246"/>
      <point x="599" y="318" type="curve"/>
      <point x="589" y="307"/>
      <point x="580" y="295"/>
      <point x="570" y="283" type="curve"/>
      <point x="558" y="271"/>
      <point x="538" y="271"/>
      <point x="527" y="258" type="curve"/>
      <point x="648" y="258"/>
      <point x="735" y="299"/>
      <point x="735" y="408" type="curve"/>
      <point x="735" y="515"/>
      <point x="652" y="557"/>
      <point x="534" y="557" type="curve"/>
      <point x="464" y="557"/>
      <point x="420" y="557"/>
      <point x="350" y="557" type="curve"/>
    </contour>
    <contour>
      <point x="-28" y="612"/>
      <point x="-28" y="722"/>
      <point x="-28" y="612" type="curve"/>
      <point x="263" y="612"/>
      <point x="657" y="612"/>
      <point x="948" y="612" type="curve"/>
      <point x="948" y="722"/>
      <point x="948" y="612"/>
      <point x="948" y="722" type="curve"/>
      <point x="657" y="722"/>
      <point x="263" y="722"/>
      <point x="-28" y="722" type="curve"/>
    </contour>
  </outline>
</glyph>
